<svg width="117" height="165" viewBox="0 0 117 165" fill="none" xmlns="http://www.w3.org/2000/svg">
<g clip-path="url(#clip0_1990_32283)">
<path d="M12.7136 4.18828C12.3203 3.79563 11.7887 3.58339 11.2253 3.58339C10.6619 3.58339 10.1304 3.79563 9.73702 4.18828L9.0354 4.86747L7.6428 3.49849L8.34442 2.8193C9.16297 2.01277 9.16297 0.707458 8.34442 -0.088461C7.52586 -0.894992 6.18641 -0.894992 5.36785 -0.088461C4.5493 0.71807 4.5493 2.02338 5.36785 2.8193L6.06947 3.49849L4.67687 4.86747L3.97525 4.18828C3.15669 3.38175 1.81724 3.38175 0.998682 4.18828C0.180127 4.99482 0.180127 6.30012 0.998682 7.09604C1.41327 7.4993 1.94481 7.70094 2.48697 7.70094C3.02913 7.70094 3.56065 7.4993 3.97525 7.09604L4.67687 6.41686L6.06947 7.78584L5.36785 8.46502C4.97452 8.85767 4.75128 9.36706 4.75128 9.91889C4.75128 10.4707 4.97452 10.9907 5.36785 11.3728C5.78244 11.776 6.31398 11.9777 6.85614 11.9777C7.3983 11.9777 7.92982 11.776 8.34442 11.3728C8.75901 10.9695 8.96099 10.4707 8.96099 9.91889C8.96099 9.36706 8.73775 8.84706 8.34442 8.46502L7.6428 7.78584L9.0354 6.41686L9.73702 7.09604C10.1516 7.4993 10.6832 7.70094 11.2253 7.70094C11.7675 7.70094 12.299 7.4993 12.7136 7.09604C13.5321 6.28951 13.5321 4.9842 12.7136 4.18828ZM6.15452 2.0446C5.77182 1.66256 5.77182 1.05766 6.15452 0.675622C6.34587 0.484602 6.60101 0.389095 6.85614 0.389095C7.11128 0.389095 7.3664 0.484602 7.55775 0.675622C7.94045 1.05766 7.94045 1.66256 7.55775 2.0446L6.85614 2.72379L6.15452 2.0446ZM3.17795 6.32134C2.79525 6.70338 2.16805 6.70338 1.78535 6.32134C1.40265 5.9393 1.40265 5.3344 1.78535 4.95236C1.9767 4.76134 2.23184 4.66583 2.48697 4.66583C2.74211 4.66583 2.99723 4.76134 3.18858 4.95236L3.8902 5.63155L3.18858 6.31073L3.17795 6.32134ZM7.55775 9.2291C7.7491 9.40951 7.84478 9.65359 7.84478 9.90829C7.84478 10.163 7.73847 10.4071 7.55775 10.5875C7.17505 10.9695 6.54785 10.9695 6.16514 10.5875C5.97379 10.4071 5.87813 10.163 5.87813 9.90829C5.87813 9.65359 5.98443 9.40951 6.16514 9.2291L6.86677 8.54992L7.56839 9.2291H7.55775ZM6.85614 7.00052L5.46354 5.63155L6.85614 4.26257L8.24875 5.63155L6.85614 7.00052ZM11.9269 6.32134C11.5442 6.70338 10.917 6.70338 10.5343 6.32134L9.83269 5.64216L10.5343 4.96297C10.7257 4.78257 10.9702 4.67645 11.2359 4.67645C11.5017 4.67645 11.7462 4.77195 11.9376 4.96297C12.3203 5.34502 12.3203 5.94991 11.9376 6.33196L11.9269 6.32134Z" fill="#D22832"/>
<path d="M38.6316 4.18828C38.2382 3.79563 37.7067 3.58339 37.1433 3.58339C36.5798 3.58339 36.0483 3.79563 35.655 4.18828L34.9534 4.86747L33.5608 3.49849L34.2624 2.8193C35.0809 2.01277 35.0809 0.707458 34.2624 -0.088461C33.4438 -0.894992 32.1044 -0.894992 31.2858 -0.088461C30.4673 0.71807 30.4673 2.02338 31.2858 2.8193L31.9874 3.49849L30.5948 4.86747L29.8932 4.18828C29.0747 3.38175 27.7352 3.38175 26.9167 4.18828C26.0981 4.99482 26.0981 6.30012 26.9167 7.09604C27.3312 7.4993 27.8628 7.70094 28.4049 7.70094C28.9471 7.70094 29.4786 7.4993 29.8932 7.09604L30.5948 6.41686L31.9874 7.78584L31.2858 8.46502C30.8925 8.85767 30.6692 9.36706 30.6692 9.91889C30.6692 10.4707 30.8925 10.9907 31.2858 11.3728C31.7004 11.776 32.2319 11.9777 32.7741 11.9777C33.3163 11.9777 33.8478 11.776 34.2624 11.3728C34.677 10.9695 34.879 10.4707 34.879 9.91889C34.879 9.36706 34.6557 8.84706 34.2624 8.46502L33.5608 7.78584L34.9534 6.41686L35.655 7.09604C36.0696 7.4993 36.6011 7.70094 37.1433 7.70094C37.6854 7.70094 38.217 7.4993 38.6316 7.09604C39.4501 6.28951 39.4501 4.9842 38.6316 4.18828ZM32.0725 2.0446C31.6898 1.66256 31.6898 1.05766 32.0725 0.675622C32.2638 0.484602 32.519 0.389095 32.7741 0.389095C33.0292 0.389095 33.2844 0.484602 33.4757 0.675622C33.8584 1.05766 33.8584 1.66256 33.4757 2.0446L32.7741 2.72379L32.0725 2.0446ZM29.0959 6.32134C28.7132 6.70338 28.086 6.70338 27.7033 6.32134C27.3206 5.9393 27.3206 5.3344 27.7033 4.95236C27.8947 4.76134 28.1498 4.66583 28.4049 4.66583C28.6601 4.66583 28.9152 4.76134 29.1065 4.95236L29.8082 5.63155L29.1065 6.31073L29.0959 6.32134ZM33.4757 9.2291C33.6671 9.40951 33.7627 9.65359 33.7627 9.90829C33.7627 10.163 33.6564 10.4071 33.4757 10.5875C33.093 10.9695 32.4658 10.9695 32.0831 10.5875C31.8918 10.4071 31.7961 10.163 31.7961 9.90829C31.7961 9.65359 31.9024 9.40951 32.0831 9.2291L32.7847 8.54992L33.4863 9.2291H33.4757ZM32.7741 7.00052L31.3815 5.63155L32.7741 4.26257L34.1667 5.63155L32.7741 7.00052ZM37.8449 6.32134C37.4622 6.70338 36.835 6.70338 36.4523 6.32134L35.7507 5.64216L36.4523 4.96297C36.6436 4.78257 36.8881 4.67645 37.1539 4.67645C37.4197 4.67645 37.6642 4.77195 37.8555 4.96297C38.2382 5.34502 38.2382 5.94991 37.8555 6.33196L37.8449 6.32134Z" fill="#D22832"/>
<path d="M64.5476 4.18828C64.1542 3.79563 63.6227 3.58339 63.0593 3.58339C62.4959 3.58339 61.9643 3.79563 61.571 4.18828L60.8694 4.86747L59.4768 3.49849L60.1784 2.8193C60.9969 2.01277 60.9969 0.707458 60.1784 -0.088461C59.3598 -0.894992 58.0204 -0.894992 57.2018 -0.088461C56.3833 0.71807 56.3833 2.02338 57.2018 2.8193L57.9034 3.49849L56.5108 4.86747L55.8092 4.18828C54.9907 3.38175 53.6512 3.38175 52.8327 4.18828C52.0141 4.99482 52.0141 6.30012 52.8327 7.09604C53.2473 7.4993 53.7788 7.70094 54.3209 7.70094C54.8631 7.70094 55.3946 7.4993 55.8092 7.09604L56.5108 6.41686L57.9034 7.78584L57.2018 8.46502C56.8085 8.85767 56.5853 9.36706 56.5853 9.91889C56.5853 10.4707 56.8085 10.9907 57.2018 11.3728C57.6164 11.776 58.148 11.9777 58.6901 11.9777C59.2323 11.9777 59.7638 11.776 60.1784 11.3728C60.593 10.9695 60.795 10.4707 60.795 9.91889C60.795 9.36706 60.5717 8.84706 60.1784 8.46502L59.4768 7.78584L60.8694 6.41686L61.571 7.09604C61.9856 7.4993 62.5171 7.70094 63.0593 7.70094C63.6014 7.70094 64.133 7.4993 64.5476 7.09604C65.3661 6.28951 65.3661 4.9842 64.5476 4.18828ZM57.9885 2.0446C57.6058 1.66256 57.6058 1.05766 57.9885 0.675622C58.1798 0.484602 58.435 0.389095 58.6901 0.389095C58.9452 0.389095 59.2004 0.484602 59.3917 0.675622C59.7744 1.05766 59.7744 1.66256 59.3917 2.0446L58.6901 2.72379L57.9885 2.0446ZM55.0119 6.32134C54.6292 6.70338 54.002 6.70338 53.6193 6.32134C53.2366 5.9393 53.2366 5.3344 53.6193 4.95236C53.8107 4.76134 54.0658 4.66583 54.3209 4.66583C54.5761 4.66583 54.8312 4.76134 55.0226 4.95236L55.7242 5.63155L55.0226 6.31073L55.0119 6.32134ZM59.3917 9.2291C59.5831 9.40951 59.6788 9.65359 59.6788 9.90829C59.6788 10.163 59.5725 10.4071 59.3917 10.5875C59.009 10.9695 58.3818 10.9695 57.9991 10.5875C57.8078 10.4071 57.7121 10.163 57.7121 9.90829C57.7121 9.65359 57.8184 9.40951 57.9991 9.2291L58.7007 8.54992L59.4024 9.2291H59.3917ZM58.6901 7.00052L57.2975 5.63155L58.6901 4.26257L60.0827 5.63155L58.6901 7.00052ZM63.7609 6.32134C63.3782 6.70338 62.751 6.70338 62.3683 6.32134L61.6667 5.64216L62.3683 4.96297C62.5596 4.78257 62.8041 4.67645 63.0699 4.67645C63.3357 4.67645 63.5802 4.77195 63.7715 4.96297C64.1542 5.34502 64.1542 5.94991 63.7715 6.33196L63.7609 6.32134Z" fill="#D22832"/>
<path d="M90.4655 4.18828C90.0722 3.79563 89.5407 3.58339 88.9773 3.58339C88.4138 3.58339 87.8823 3.79563 87.489 4.18828L86.7874 4.86747L85.3947 3.49849L86.0964 2.8193C86.9149 2.01277 86.9149 0.707458 86.0964 -0.088461C85.2778 -0.894992 83.9384 -0.894992 83.1198 -0.088461C82.3012 0.71807 82.3012 2.02338 83.1198 2.8193L83.8214 3.49849L82.4288 4.86747L81.7272 4.18828C80.9086 3.38175 79.5692 3.38175 78.7506 4.18828C77.9321 4.99482 77.9321 6.30012 78.7506 7.09604C79.1652 7.4993 79.6968 7.70094 80.2389 7.70094C80.7811 7.70094 81.3126 7.4993 81.7272 7.09604L82.4288 6.41686L83.8214 7.78584L83.1198 8.46502C82.7265 8.85767 82.5032 9.36706 82.5032 9.91889C82.5032 10.4707 82.7265 10.9907 83.1198 11.3728C83.5344 11.776 84.0659 11.9777 84.6081 11.9777C85.1503 11.9777 85.6818 11.776 86.0964 11.3728C86.511 10.9695 86.7129 10.4707 86.7129 9.91889C86.7129 9.36706 86.4897 8.84706 86.0964 8.46502L85.3947 7.78584L86.7874 6.41686L87.489 7.09604C87.9036 7.4993 88.4351 7.70094 88.9773 7.70094C89.5194 7.70094 90.0509 7.4993 90.4655 7.09604C91.2841 6.28951 91.2841 4.9842 90.4655 4.18828ZM83.9065 2.0446C83.5238 1.66256 83.5238 1.05766 83.9065 0.675622C84.0978 0.484602 84.353 0.389095 84.6081 0.389095C84.8632 0.389095 85.1184 0.484602 85.3097 0.675622C85.6924 1.05766 85.6924 1.66256 85.3097 2.0446L84.6081 2.72379L83.9065 2.0446ZM80.9299 6.32134C80.5472 6.70338 79.92 6.70338 79.5373 6.32134C79.1546 5.9393 79.1546 5.3344 79.5373 4.95236C79.7287 4.76134 79.9838 4.66583 80.2389 4.66583C80.4941 4.66583 80.7492 4.76134 80.9405 4.95236L81.6422 5.63155L80.9405 6.31073L80.9299 6.32134ZM85.3097 9.2291C85.5011 9.40951 85.5967 9.65359 85.5967 9.90829C85.5967 10.163 85.4904 10.4071 85.3097 10.5875C84.927 10.9695 84.2998 10.9695 83.9171 10.5875C83.7257 10.4071 83.6301 10.163 83.6301 9.90829C83.6301 9.65359 83.7364 9.40951 83.9171 9.2291L84.6187 8.54992L85.3203 9.2291H85.3097ZM84.6081 7.00052L83.2155 5.63155L84.6081 4.26257L86.0007 5.63155L84.6081 7.00052ZM89.6789 6.32134C89.2962 6.70338 88.669 6.70338 88.2863 6.32134L87.5847 5.64216L88.2863 4.96297C88.4776 4.78257 88.7221 4.67645 88.9879 4.67645C89.2537 4.67645 89.4982 4.77195 89.6895 4.96297C90.0722 5.34502 90.0722 5.94991 89.6895 6.33196L89.6789 6.32134Z" fill="#D22832"/>
<path d="M116.384 4.18828C115.99 3.79563 115.459 3.58339 114.895 3.58339C114.332 3.58339 113.8 3.79563 113.407 4.18828L112.705 4.86747L111.313 3.49849L112.014 2.8193C112.833 2.01277 112.833 0.707458 112.014 -0.088461C111.196 -0.894992 109.856 -0.894992 109.038 -0.088461C108.219 0.71807 108.219 2.02338 109.038 2.8193L109.739 3.49849L108.347 4.86747L107.645 4.18828C106.827 3.38175 105.487 3.38175 104.669 4.18828C103.85 4.99482 103.85 6.30012 104.669 7.09604C105.083 7.4993 105.615 7.70094 106.157 7.70094C106.699 7.70094 107.231 7.4993 107.645 7.09604L108.347 6.41686L109.739 7.78584L109.038 8.46502C108.644 8.85767 108.421 9.36706 108.421 9.91889C108.421 10.4707 108.644 10.9907 109.038 11.3728C109.452 11.776 109.984 11.9777 110.526 11.9777C111.068 11.9777 111.6 11.776 112.014 11.3728C112.429 10.9695 112.631 10.4707 112.631 9.91889C112.631 9.36706 112.408 8.84706 112.014 8.46502L111.313 7.78584L112.705 6.41686L113.407 7.09604C113.822 7.4993 114.353 7.70094 114.895 7.70094C115.437 7.70094 115.969 7.4993 116.384 7.09604C117.202 6.28951 117.202 4.9842 116.384 4.18828ZM109.824 2.0446C109.442 1.66256 109.442 1.05766 109.824 0.675622C110.016 0.484602 110.271 0.389095 110.526 0.389095C110.781 0.389095 111.036 0.484602 111.228 0.675622C111.61 1.05766 111.61 1.66256 111.228 2.0446L110.526 2.72379L109.824 2.0446ZM106.848 6.32134C106.465 6.70338 105.838 6.70338 105.455 6.32134C105.073 5.9393 105.073 5.3344 105.455 4.95236C105.647 4.76134 105.902 4.66583 106.157 4.66583C106.412 4.66583 106.667 4.76134 106.859 4.95236L107.56 5.63155L106.859 6.31073L106.848 6.32134ZM111.228 9.2291C111.419 9.40951 111.515 9.65359 111.515 9.90829C111.515 10.163 111.408 10.4071 111.228 10.5875C110.845 10.9695 110.218 10.9695 109.835 10.5875C109.644 10.4071 109.548 10.163 109.548 9.90829C109.548 9.65359 109.654 9.40951 109.835 9.2291L110.537 8.54992L111.238 9.2291H111.228ZM110.526 7.00052L109.133 5.63155L110.526 4.26257L111.919 5.63155L110.526 7.00052ZM115.597 6.32134C115.214 6.70338 114.587 6.70338 114.204 6.32134L113.503 5.64216L114.204 4.96297C114.396 4.78257 114.64 4.67645 114.906 4.67645C115.172 4.67645 115.416 4.77195 115.607 4.96297C115.99 5.34502 115.99 5.94991 115.607 6.33196L115.597 6.32134Z" fill="#D22832"/>
<path d="M12.7136 29.5965C12.3203 29.2038 11.7887 28.9916 11.2253 28.9916C10.6619 28.9916 10.1304 29.2038 9.73702 29.5965L9.0354 30.2757L7.64279 28.9067L8.34442 28.2275C9.16297 27.421 9.16297 26.1157 8.34442 25.3197C7.52586 24.5132 6.18641 24.5132 5.36785 25.3197C4.5493 26.1263 4.5493 27.4316 5.36785 28.2275L6.06947 28.9067L4.67687 30.2757L3.97525 29.5965C3.15669 28.7899 1.81724 28.7899 0.998682 29.5965C0.180127 30.403 0.180127 31.7083 0.998682 32.5042C1.41327 32.9075 1.94481 33.1091 2.48697 33.1091C3.02913 33.1091 3.56065 32.9075 3.97525 32.5042L4.67687 31.825L6.06947 33.194L5.36785 33.8732C4.97452 34.2659 4.75128 34.7753 4.75128 35.3271C4.75128 35.8789 4.97452 36.3989 5.36785 36.781C5.78244 37.1842 6.31398 37.3859 6.85614 37.3859C7.3983 37.3859 7.92982 37.1842 8.34442 36.781C8.75901 36.3777 8.96099 35.8789 8.96099 35.3271C8.96099 34.7753 8.73775 34.2553 8.34442 33.8732L7.64279 33.194L9.0354 31.825L9.73702 32.5042C10.1516 32.9075 10.6832 33.1091 11.2253 33.1091C11.7675 33.1091 12.299 32.9075 12.7136 32.5042C13.5321 31.6977 13.5321 30.3924 12.7136 29.5965ZM6.15452 27.4528C5.77182 27.0708 5.77182 26.4659 6.15452 26.0838C6.34587 25.8928 6.60101 25.7973 6.85614 25.7973C7.11128 25.7973 7.3664 25.8928 7.55775 26.0838C7.94045 26.4659 7.94045 27.0708 7.55775 27.4528L6.85614 28.132L6.15452 27.4528ZM3.17795 31.7295C2.79525 32.1116 2.16805 32.1116 1.78535 31.7295C1.40265 31.3475 1.40265 30.7426 1.78535 30.3606C1.9767 30.1695 2.23184 30.074 2.48697 30.074C2.74211 30.074 2.99723 30.1695 3.18858 30.3606L3.8902 31.0397L3.18858 31.7189L3.17795 31.7295ZM7.55775 34.6373C7.7491 34.8177 7.84478 35.0618 7.84478 35.3165C7.84478 35.5712 7.73847 35.8153 7.55775 35.9957C7.17505 36.3777 6.54785 36.3777 6.16514 35.9957C5.97379 35.8153 5.87813 35.5712 5.87813 35.3165C5.87813 35.0618 5.98442 34.8177 6.16514 34.6373L6.86677 33.9581L7.56839 34.6373H7.55775ZM6.85614 32.4087L5.46354 31.0397L6.85614 29.6708L8.24875 31.0397L6.85614 32.4087ZM11.9269 31.7295C11.5442 32.1116 10.917 32.1116 10.5343 31.7295L9.83269 31.0504L10.5343 30.3712C10.7257 30.1908 10.9702 30.0846 11.2359 30.0846C11.5017 30.0846 11.7462 30.1801 11.9376 30.3712C12.3203 30.7532 12.3203 31.3581 11.9376 31.7401L11.9269 31.7295Z" fill="#D22832"/>
<path d="M38.6316 29.5965C38.2382 29.2038 37.7067 28.9916 37.1433 28.9916C36.5798 28.9916 36.0483 29.2038 35.655 29.5965L34.9534 30.2757L33.5608 28.9067L34.2624 28.2275C35.0809 27.421 35.0809 26.1157 34.2624 25.3197C33.4438 24.5132 32.1044 24.5132 31.2858 25.3197C30.4673 26.1263 30.4673 27.4316 31.2858 28.2275L31.9874 28.9067L30.5948 30.2757L29.8932 29.5965C29.0747 28.7899 27.7352 28.7899 26.9167 29.5965C26.0981 30.403 26.0981 31.7083 26.9167 32.5042C27.3312 32.9075 27.8628 33.1091 28.4049 33.1091C28.9471 33.1091 29.4786 32.9075 29.8932 32.5042L30.5948 31.825L31.9874 33.194L31.2858 33.8732C30.8925 34.2659 30.6692 34.7753 30.6692 35.3271C30.6692 35.8789 30.8925 36.3989 31.2858 36.781C31.7004 37.1842 32.2319 37.3859 32.7741 37.3859C33.3163 37.3859 33.8478 37.1842 34.2624 36.781C34.6557 36.3883 34.879 35.8789 34.879 35.3271C34.879 34.7753 34.6557 34.2553 34.2624 33.8732L33.5608 33.194L34.9534 31.825L35.655 32.5042C36.0696 32.9075 36.6011 33.1091 37.1433 33.1091C37.6854 33.1091 38.217 32.9075 38.6316 32.5042C39.4501 31.6977 39.4501 30.3924 38.6316 29.5965ZM32.0725 27.4528C31.6898 27.0708 31.6898 26.4659 32.0725 26.0838C32.2638 25.8928 32.519 25.7973 32.7741 25.7973C33.0292 25.7973 33.2844 25.8928 33.4757 26.0838C33.8584 26.4659 33.8584 27.0708 33.4757 27.4528L32.7741 28.132L32.0725 27.4528ZM29.0959 31.7295C28.7132 32.1116 28.086 32.1116 27.7033 31.7295C27.3206 31.3475 27.3206 30.7426 27.7033 30.3606C27.8947 30.1695 28.1498 30.074 28.4049 30.074C28.6601 30.074 28.9152 30.1695 29.1065 30.3606L29.8082 31.0397L29.1065 31.7189L29.0959 31.7295ZM33.4757 34.6373C33.6671 34.8177 33.7627 35.0618 33.7627 35.3165C33.7627 35.5712 33.6564 35.8153 33.4757 35.9957C33.093 36.3777 32.4658 36.3777 32.0831 35.9957C31.8918 35.8153 31.7961 35.5712 31.7961 35.3165C31.7961 35.0618 31.9024 34.8177 32.0831 34.6373L32.7847 33.9581L33.4863 34.6373H33.4757ZM32.7741 32.4087L31.3815 31.0397L32.7741 29.6708L34.1667 31.0397L32.7741 32.4087ZM37.8449 31.7295C37.4622 32.1116 36.835 32.1116 36.4523 31.7295L35.7507 31.0504L36.4523 30.3712C36.6436 30.1908 36.8881 30.0846 37.1539 30.0846C37.4197 30.0846 37.6642 30.1801 37.8555 30.3712C38.2382 30.7532 38.2382 31.3581 37.8555 31.7401L37.8449 31.7295Z" fill="#D22832"/>
<path d="M64.5476 29.5965C64.1542 29.2038 63.6227 28.9916 63.0593 28.9916C62.4959 28.9916 61.9643 29.2038 61.571 29.5965L60.8694 30.2757L59.4768 28.9067L60.1784 28.2275C60.9969 27.421 60.9969 26.1157 60.1784 25.3197C59.3598 24.5132 58.0204 24.5132 57.2018 25.3197C56.3833 26.1263 56.3833 27.4316 57.2018 28.2275L57.9034 28.9067L56.5108 30.2757L55.8092 29.5965C54.9907 28.7899 53.6512 28.7899 52.8327 29.5965C52.0141 30.403 52.0141 31.7083 52.8327 32.5042C53.2473 32.9075 53.7788 33.1091 54.3209 33.1091C54.8631 33.1091 55.3946 32.9075 55.8092 32.5042L56.5108 31.825L57.9034 33.194L57.2018 33.8732C56.8085 34.2659 56.5853 34.7753 56.5853 35.3271C56.5853 35.8789 56.8085 36.3989 57.2018 36.781C57.6164 37.1842 58.148 37.3859 58.6901 37.3859C59.2323 37.3859 59.7638 37.1842 60.1784 36.781C60.593 36.3777 60.795 35.8789 60.795 35.3271C60.795 34.7753 60.5717 34.2553 60.1784 33.8732L59.4768 33.194L60.8694 31.825L61.571 32.5042C61.9856 32.9075 62.5171 33.1091 63.0593 33.1091C63.6014 33.1091 64.133 32.9075 64.5476 32.5042C65.3661 31.6977 65.3661 30.3924 64.5476 29.5965ZM57.9885 27.4528C57.6058 27.0708 57.6058 26.4659 57.9885 26.0838C58.1798 25.8928 58.435 25.7973 58.6901 25.7973C58.9452 25.7973 59.2004 25.8928 59.3917 26.0838C59.7744 26.4659 59.7744 27.0708 59.3917 27.4528L58.6901 28.132L57.9885 27.4528ZM55.0119 31.7295C54.6292 32.1116 54.002 32.1116 53.6193 31.7295C53.2366 31.3475 53.2366 30.7426 53.6193 30.3606C53.8107 30.1695 54.0658 30.074 54.3209 30.074C54.5761 30.074 54.8312 30.1695 55.0226 30.3606L55.7242 31.0397L55.0226 31.7189L55.0119 31.7295ZM59.3917 34.6373C59.5831 34.8177 59.6788 35.0618 59.6788 35.3165C59.6788 35.5712 59.5725 35.8153 59.3917 35.9957C59.009 36.3777 58.3818 36.3777 57.9991 35.9957C57.8078 35.8153 57.7121 35.5712 57.7121 35.3165C57.7121 35.0618 57.8184 34.8177 57.9991 34.6373L58.7007 33.9581L59.4024 34.6373H59.3917ZM58.6901 32.4087L57.2975 31.0397L58.6901 29.6708L60.0827 31.0397L58.6901 32.4087ZM63.7609 31.7295C63.3782 32.1116 62.751 32.1116 62.3683 31.7295L61.6667 31.0504L62.3683 30.3712C62.5596 30.1908 62.8041 30.0846 63.0699 30.0846C63.3357 30.0846 63.5802 30.1801 63.7715 30.3712C64.1542 30.7532 64.1542 31.3581 63.7715 31.7401L63.7609 31.7295Z" fill="#D22832"/>
<path d="M90.4655 29.5965C90.0722 29.2038 89.5407 28.9916 88.9773 28.9916C88.4138 28.9916 87.8823 29.2038 87.489 29.5965L86.7874 30.2757L85.3947 28.9067L86.0964 28.2275C86.9149 27.421 86.9149 26.1157 86.0964 25.3197C85.2778 24.5132 83.9384 24.5132 83.1198 25.3197C82.3012 26.1263 82.3012 27.4316 83.1198 28.2275L83.8214 28.9067L82.4288 30.2757L81.7272 29.5965C80.9086 28.7899 79.5692 28.7899 78.7506 29.5965C77.9321 30.403 77.9321 31.7083 78.7506 32.5042C79.1652 32.9075 79.6968 33.1091 80.2389 33.1091C80.7811 33.1091 81.3126 32.9075 81.7272 32.5042L82.4288 31.825L83.8214 33.194L83.1198 33.8732C82.7265 34.2659 82.5032 34.7753 82.5032 35.3271C82.5032 35.8789 82.7265 36.3989 83.1198 36.781C83.5344 37.1842 84.0659 37.3859 84.6081 37.3859C85.1503 37.3859 85.6818 37.1842 86.0964 36.781C86.511 36.3777 86.7129 35.8789 86.7129 35.3271C86.7129 34.7753 86.4897 34.2553 86.0964 33.8732L85.3947 33.194L86.7874 31.825L87.489 32.5042C87.9036 32.9075 88.4351 33.1091 88.9773 33.1091C89.5194 33.1091 90.0509 32.9075 90.4655 32.5042C91.2841 31.6977 91.2841 30.3924 90.4655 29.5965ZM83.9065 27.4528C83.5238 27.0708 83.5238 26.4659 83.9065 26.0838C84.0978 25.8928 84.353 25.7973 84.6081 25.7973C84.8632 25.7973 85.1184 25.8928 85.3097 26.0838C85.6924 26.4659 85.6924 27.0708 85.3097 27.4528L84.6081 28.132L83.9065 27.4528ZM80.9299 31.7295C80.5472 32.1116 79.92 32.1116 79.5373 31.7295C79.1546 31.3475 79.1546 30.7426 79.5373 30.3606C79.7287 30.1695 79.9838 30.074 80.2389 30.074C80.4941 30.074 80.7492 30.1695 80.9405 30.3606L81.6422 31.0397L80.9405 31.7189L80.9299 31.7295ZM85.3097 34.6373C85.5011 34.8177 85.5967 35.0618 85.5967 35.3165C85.5967 35.5712 85.4904 35.8153 85.3097 35.9957C84.927 36.3777 84.2998 36.3777 83.9171 35.9957C83.7257 35.8153 83.6301 35.5712 83.6301 35.3165C83.6301 35.0618 83.7364 34.8177 83.9171 34.6373L84.6187 33.9581L85.3203 34.6373H85.3097ZM84.6081 32.4087L83.2155 31.0397L84.6081 29.6708L86.0007 31.0397L84.6081 32.4087ZM89.6789 31.7295C89.2962 32.1116 88.669 32.1116 88.2863 31.7295L87.5847 31.0504L88.2863 30.3712C88.4776 30.1908 88.7221 30.0846 88.9879 30.0846C89.2537 30.0846 89.4982 30.1801 89.6895 30.3712C90.0722 30.7532 90.0722 31.3581 89.6895 31.7401L89.6789 31.7295Z" fill="#D22832"/>
<path d="M116.384 29.5965C115.99 29.2038 115.459 28.9916 114.895 28.9916C114.332 28.9916 113.8 29.2038 113.407 29.5965L112.705 30.2757L111.313 28.9067L112.014 28.2275C112.833 27.421 112.833 26.1157 112.014 25.3197C111.196 24.5132 109.856 24.5132 109.038 25.3197C108.219 26.1263 108.219 27.4316 109.038 28.2275L109.739 28.9067L108.347 30.2757L107.645 29.5965C106.827 28.7899 105.487 28.7899 104.669 29.5965C103.85 30.403 103.85 31.7083 104.669 32.5042C105.083 32.9075 105.615 33.1091 106.157 33.1091C106.699 33.1091 107.231 32.9075 107.645 32.5042L108.347 31.825L109.739 33.194L109.038 33.8732C108.644 34.2659 108.421 34.7753 108.421 35.3271C108.421 35.8789 108.644 36.3989 109.038 36.781C109.452 37.1842 109.984 37.3859 110.526 37.3859C111.068 37.3859 111.6 37.1842 112.014 36.781C112.429 36.3777 112.631 35.8789 112.631 35.3271C112.631 34.7753 112.408 34.2553 112.014 33.8732L111.313 33.194L112.705 31.825L113.407 32.5042C113.822 32.9075 114.353 33.1091 114.895 33.1091C115.437 33.1091 115.969 32.9075 116.384 32.5042C117.202 31.6977 117.202 30.3924 116.384 29.5965ZM109.824 27.4528C109.442 27.0708 109.442 26.4659 109.824 26.0838C110.016 25.8928 110.271 25.7973 110.526 25.7973C110.781 25.7973 111.036 25.8928 111.228 26.0838C111.61 26.4659 111.61 27.0708 111.228 27.4528L110.526 28.132L109.824 27.4528ZM106.848 31.7295C106.465 32.1116 105.838 32.1116 105.455 31.7295C105.073 31.3475 105.073 30.7426 105.455 30.3606C105.647 30.1695 105.902 30.074 106.157 30.074C106.412 30.074 106.667 30.1695 106.859 30.3606L107.56 31.0397L106.859 31.7189L106.848 31.7295ZM111.228 34.6373C111.419 34.8177 111.515 35.0618 111.515 35.3165C111.515 35.5712 111.408 35.8153 111.228 35.9957C110.845 36.3777 110.218 36.3777 109.835 35.9957C109.644 35.8153 109.548 35.5712 109.548 35.3165C109.548 35.0618 109.654 34.8177 109.835 34.6373L110.537 33.9581L111.238 34.6373H111.228ZM110.526 32.4087L109.133 31.0397L110.526 29.6708L111.919 31.0397L110.526 32.4087ZM115.597 31.7295C115.214 32.1116 114.587 32.1116 114.204 31.7295L113.503 31.0504L114.204 30.3712C114.396 30.1908 114.64 30.0846 114.906 30.0846C115.172 30.0846 115.416 30.1801 115.607 30.3712C115.99 30.7532 115.99 31.3581 115.607 31.7401L115.597 31.7295Z" fill="#D22832"/>
<path d="M12.7136 55.0027C12.3203 54.6101 11.7887 54.3978 11.2253 54.3978C10.6619 54.3978 10.1304 54.6101 9.73702 55.0027L9.0354 55.6819L7.6428 54.3129L8.34442 53.6338C9.16297 52.8272 9.16297 51.5219 8.34442 50.726C7.52586 49.9195 6.18641 49.9195 5.36785 50.726C4.5493 51.5325 4.5493 52.8378 5.36785 53.6338L6.06947 54.3129L4.67687 55.6819L3.97525 55.0027C3.15669 54.1962 1.81724 54.1962 0.998682 55.0027C0.180127 55.8093 0.180127 57.1146 0.998682 57.9105C1.41327 58.3138 1.94481 58.5154 2.48697 58.5154C3.02913 58.5154 3.56065 58.3138 3.97525 57.9105L4.67687 57.2313L6.06947 58.6003L5.36785 59.2795C4.97452 59.6721 4.75128 60.1815 4.75128 60.7334C4.75128 61.2852 4.97452 61.8052 5.36785 62.1872C5.78244 62.5905 6.31398 62.7921 6.85614 62.7921C7.3983 62.7921 7.92982 62.5905 8.34442 62.1872C8.75901 61.784 8.96099 61.2852 8.96099 60.7334C8.96099 60.1815 8.73775 59.6615 8.34442 59.2795L7.6428 58.6003L9.0354 57.2313L9.73702 57.9105C10.1516 58.3138 10.6832 58.5154 11.2253 58.5154C11.7675 58.5154 12.299 58.3138 12.7136 57.9105C13.5321 57.104 13.5321 55.7986 12.7136 55.0027ZM6.15452 52.8591C5.77182 52.477 5.77182 51.8721 6.15452 51.4901C6.34587 51.2991 6.60101 51.2036 6.85614 51.2036C7.11128 51.2036 7.3664 51.2991 7.55775 51.4901C7.94045 51.8721 7.94045 52.477 7.55775 52.8591L6.85614 53.5382L6.15452 52.8591ZM3.17795 57.1358C2.79525 57.5178 2.16805 57.5178 1.78535 57.1358C1.40265 56.7538 1.40265 56.1489 1.78535 55.7668C1.9767 55.5758 2.23184 55.4803 2.48697 55.4803C2.74211 55.4803 2.99723 55.5758 3.18858 55.7668L3.8902 56.446L3.18858 57.1252L3.17795 57.1358ZM7.55775 60.0435C7.7491 60.224 7.84478 60.4681 7.84478 60.7227C7.84478 60.9774 7.73847 61.2215 7.55775 61.4019C7.17505 61.784 6.54785 61.784 6.16514 61.4019C5.97379 61.2215 5.87813 60.9774 5.87813 60.7227C5.87813 60.4681 5.98443 60.224 6.16514 60.0435L6.86677 59.3644L7.56839 60.0435H7.55775ZM6.85614 57.815L5.46354 56.446L6.85614 55.077L8.24875 56.446L6.85614 57.815ZM11.9269 57.1358C11.5442 57.5178 10.917 57.5178 10.5343 57.1358L9.83269 56.4566L10.5343 55.7774C10.7257 55.597 10.9702 55.4909 11.2359 55.4909C11.5017 55.4909 11.7462 55.5864 11.9376 55.7774C12.3203 56.1595 12.3203 56.7644 11.9376 57.1464L11.9269 57.1358Z" fill="#D22832"/>
<path d="M38.6316 55.0027C38.2382 54.6101 37.7067 54.3978 37.1433 54.3978C36.5798 54.3978 36.0483 54.6101 35.655 55.0027L34.9534 55.6819L33.5608 54.3129L34.2624 53.6338C35.0809 52.8272 35.0809 51.5219 34.2624 50.726C33.4438 49.9195 32.1044 49.9195 31.2858 50.726C30.4673 51.5325 30.4673 52.8378 31.2858 53.6338L31.9874 54.3129L30.5948 55.6819L29.8932 55.0027C29.0747 54.1962 27.7352 54.1962 26.9167 55.0027C26.0981 55.8093 26.0981 57.1146 26.9167 57.9105C27.3312 58.3138 27.8628 58.5154 28.4049 58.5154C28.9471 58.5154 29.4786 58.3138 29.8932 57.9105L30.5948 57.2313L31.9874 58.6003L31.2858 59.2795C30.8925 59.6721 30.6692 60.1815 30.6692 60.7334C30.6692 61.2852 30.8925 61.8052 31.2858 62.1872C31.7004 62.5905 32.2319 62.7921 32.7741 62.7921C33.3163 62.7921 33.8478 62.5905 34.2624 62.1872C34.677 61.784 34.879 61.2852 34.879 60.7334C34.879 60.1815 34.6557 59.6615 34.2624 59.2795L33.5608 58.6003L34.9534 57.2313L35.655 57.9105C36.0696 58.3138 36.6011 58.5154 37.1433 58.5154C37.6854 58.5154 38.217 58.3138 38.6316 57.9105C39.4501 57.104 39.4501 55.7986 38.6316 55.0027ZM32.0725 52.8591C31.6898 52.477 31.6898 51.8721 32.0725 51.4901C32.2638 51.2991 32.519 51.2036 32.7741 51.2036C33.0292 51.2036 33.2844 51.2991 33.4757 51.4901C33.8584 51.8721 33.8584 52.477 33.4757 52.8591L32.7741 53.5382L32.0725 52.8591ZM29.0959 57.1358C28.7132 57.5178 28.086 57.5178 27.7033 57.1358C27.3206 56.7538 27.3206 56.1489 27.7033 55.7668C27.8947 55.5758 28.1498 55.4803 28.4049 55.4803C28.6601 55.4803 28.9152 55.5758 29.1065 55.7668L29.8082 56.446L29.1065 57.1252L29.0959 57.1358ZM33.4757 60.0435C33.6671 60.224 33.7627 60.4681 33.7627 60.7227C33.7627 60.9774 33.6564 61.2215 33.4757 61.4019C33.093 61.784 32.4658 61.784 32.0831 61.4019C31.8918 61.2215 31.7961 60.9774 31.7961 60.7227C31.7961 60.4681 31.9024 60.224 32.0831 60.0435L32.7847 59.3644L33.4863 60.0435H33.4757ZM32.7741 57.815L31.3815 56.446L32.7741 55.077L34.1667 56.446L32.7741 57.815ZM37.8449 57.1358C37.4622 57.5178 36.835 57.5178 36.4523 57.1358L35.7507 56.4566L36.4523 55.7774C36.6436 55.597 36.8881 55.4909 37.1539 55.4909C37.4197 55.4909 37.6642 55.5864 37.8555 55.7774C38.2382 56.1595 38.2382 56.7644 37.8555 57.1464L37.8449 57.1358Z" fill="#D22832"/>
<path d="M64.5476 55.0027C64.1542 54.6101 63.6227 54.3978 63.0593 54.3978C62.4959 54.3978 61.9643 54.6101 61.571 55.0027L60.8694 55.6819L59.4768 54.3129L60.1784 53.6338C60.9969 52.8272 60.9969 51.5219 60.1784 50.726C59.3598 49.9195 58.0204 49.9195 57.2018 50.726C56.3833 51.5325 56.3833 52.8378 57.2018 53.6338L57.9034 54.3129L56.5108 55.6819L55.8092 55.0027C54.9907 54.1962 53.6512 54.1962 52.8327 55.0027C52.0141 55.8093 52.0141 57.1146 52.8327 57.9105C53.2473 58.3138 53.7788 58.5154 54.3209 58.5154C54.8631 58.5154 55.3946 58.3138 55.8092 57.9105L56.5108 57.2313L57.9034 58.6003L57.2018 59.2795C56.8085 59.6721 56.5853 60.1815 56.5853 60.7334C56.5853 61.2852 56.8085 61.8052 57.2018 62.1872C57.6164 62.5905 58.148 62.7921 58.6901 62.7921C59.2323 62.7921 59.7638 62.5905 60.1784 62.1872C60.5717 61.7946 60.795 61.2852 60.795 60.7334C60.795 60.1815 60.5717 59.6615 60.1784 59.2795L59.4768 58.6003L60.8694 57.2313L61.571 57.9105C61.9856 58.3138 62.5171 58.5154 63.0593 58.5154C63.6014 58.5154 64.133 58.3138 64.5476 57.9105C65.3661 57.104 65.3661 55.7986 64.5476 55.0027ZM57.9885 52.8591C57.6058 52.477 57.6058 51.8721 57.9885 51.4901C58.1798 51.2991 58.435 51.2036 58.6901 51.2036C58.9452 51.2036 59.2004 51.2991 59.3917 51.4901C59.7744 51.8721 59.7744 52.477 59.3917 52.8591L58.6901 53.5382L57.9885 52.8591ZM55.0119 57.1358C54.6292 57.5178 54.002 57.5178 53.6193 57.1358C53.2366 56.7538 53.2366 56.1489 53.6193 55.7668C53.8107 55.5758 54.0658 55.4803 54.3209 55.4803C54.5761 55.4803 54.8312 55.5758 55.0226 55.7668L55.7242 56.446L55.0226 57.1252L55.0119 57.1358ZM59.3917 60.0435C59.5831 60.224 59.6788 60.4681 59.6788 60.7227C59.6788 60.9774 59.5725 61.2215 59.3917 61.4019C59.009 61.784 58.3818 61.784 57.9991 61.4019C57.8078 61.2215 57.7121 60.9774 57.7121 60.7227C57.7121 60.4681 57.8184 60.224 57.9991 60.0435L58.7007 59.3644L59.4024 60.0435H59.3917ZM58.6901 57.815L57.2975 56.446L58.6901 55.077L60.0827 56.446L58.6901 57.815ZM63.7609 57.1358C63.3782 57.5178 62.751 57.5178 62.3683 57.1358L61.6667 56.4566L62.3683 55.7774C62.5596 55.597 62.8041 55.4909 63.0699 55.4909C63.3357 55.4909 63.5802 55.5864 63.7715 55.7774C64.1542 56.1595 64.1542 56.7644 63.7715 57.1464L63.7609 57.1358Z" fill="#D22832"/>
<path d="M90.4655 55.0027C90.0722 54.6101 89.5407 54.3978 88.9773 54.3978C88.4138 54.3978 87.8823 54.6101 87.489 55.0027L86.7874 55.6819L85.3947 54.3129L86.0964 53.6338C86.9149 52.8272 86.9149 51.5219 86.0964 50.726C85.2778 49.9195 83.9384 49.9195 83.1198 50.726C82.3012 51.5325 82.3012 52.8378 83.1198 53.6338L83.8214 54.3129L82.4288 55.6819L81.7272 55.0027C80.9086 54.1962 79.5692 54.1962 78.7506 55.0027C77.9321 55.8093 77.9321 57.1146 78.7506 57.9105C79.1652 58.3138 79.6968 58.5154 80.2389 58.5154C80.7811 58.5154 81.3126 58.3138 81.7272 57.9105L82.4288 57.2313L83.8214 58.6003L83.1198 59.2795C82.7265 59.6721 82.5032 60.1815 82.5032 60.7334C82.5032 61.2852 82.7265 61.8052 83.1198 62.1872C83.5344 62.5905 84.0659 62.7921 84.6081 62.7921C85.1503 62.7921 85.6818 62.5905 86.0964 62.1872C86.511 61.784 86.7129 61.2852 86.7129 60.7334C86.7129 60.1815 86.4897 59.6615 86.0964 59.2795L85.3947 58.6003L86.7874 57.2313L87.489 57.9105C87.9036 58.3138 88.4351 58.5154 88.9773 58.5154C89.5194 58.5154 90.0509 58.3138 90.4655 57.9105C91.2841 57.104 91.2841 55.7986 90.4655 55.0027ZM83.9065 52.8591C83.5238 52.477 83.5238 51.8721 83.9065 51.4901C84.0978 51.2991 84.353 51.2036 84.6081 51.2036C84.8632 51.2036 85.1184 51.2991 85.3097 51.4901C85.6924 51.8721 85.6924 52.477 85.3097 52.8591L84.6081 53.5382L83.9065 52.8591ZM80.9299 57.1358C80.5472 57.5178 79.92 57.5178 79.5373 57.1358C79.1546 56.7538 79.1546 56.1489 79.5373 55.7668C79.7287 55.5758 79.9838 55.4803 80.2389 55.4803C80.4941 55.4803 80.7492 55.5758 80.9405 55.7668L81.6422 56.446L80.9405 57.1252L80.9299 57.1358ZM85.3097 60.0435C85.5011 60.224 85.5967 60.4681 85.5967 60.7227C85.5967 60.9774 85.4904 61.2215 85.3097 61.4019C84.927 61.784 84.2998 61.784 83.9171 61.4019C83.7257 61.2215 83.6301 60.9774 83.6301 60.7227C83.6301 60.4681 83.7364 60.224 83.9171 60.0435L84.6187 59.3644L85.3203 60.0435H85.3097ZM84.6081 57.815L83.2155 56.446L84.6081 55.077L86.0007 56.446L84.6081 57.815ZM89.6789 57.1358C89.2962 57.5178 88.669 57.5178 88.2863 57.1358L87.5847 56.4566L88.2863 55.7774C88.4776 55.597 88.7221 55.4909 88.9879 55.4909C89.2537 55.4909 89.4982 55.5864 89.6895 55.7774C90.0722 56.1595 90.0722 56.7644 89.6895 57.1464L89.6789 57.1358Z" fill="#D22832"/>
<path d="M116.384 55.0027C115.99 54.6101 115.459 54.3978 114.895 54.3978C114.332 54.3978 113.8 54.6101 113.407 55.0027L112.705 55.6819L111.313 54.3129L112.014 53.6338C112.833 52.8272 112.833 51.5219 112.014 50.726C111.196 49.9195 109.856 49.9195 109.038 50.726C108.219 51.5325 108.219 52.8378 109.038 53.6338L109.739 54.3129L108.347 55.6819L107.645 55.0027C106.827 54.1962 105.487 54.1962 104.669 55.0027C103.85 55.8093 103.85 57.1146 104.669 57.9105C105.083 58.3138 105.615 58.5154 106.157 58.5154C106.699 58.5154 107.231 58.3138 107.645 57.9105L108.347 57.2313L109.739 58.6003L109.038 59.2795C108.644 59.6721 108.421 60.1815 108.421 60.7334C108.421 61.2852 108.644 61.8052 109.038 62.1872C109.452 62.5905 109.984 62.7921 110.526 62.7921C111.068 62.7921 111.6 62.5905 112.014 62.1872C112.408 61.7946 112.631 61.2852 112.631 60.7334C112.631 60.1815 112.408 59.6615 112.014 59.2795L111.313 58.6003L112.705 57.2313L113.407 57.9105C113.822 58.3138 114.353 58.5154 114.895 58.5154C115.437 58.5154 115.969 58.3138 116.384 57.9105C117.202 57.104 117.202 55.7986 116.384 55.0027ZM109.824 52.8591C109.442 52.477 109.442 51.8721 109.824 51.4901C110.016 51.2991 110.271 51.2036 110.526 51.2036C110.781 51.2036 111.036 51.2991 111.228 51.4901C111.61 51.8721 111.61 52.477 111.228 52.8591L110.526 53.5382L109.824 52.8591ZM106.848 57.1358C106.465 57.5178 105.838 57.5178 105.455 57.1358C105.073 56.7538 105.073 56.1489 105.455 55.7668C105.647 55.5758 105.902 55.4803 106.157 55.4803C106.412 55.4803 106.667 55.5758 106.859 55.7668L107.56 56.446L106.859 57.1252L106.848 57.1358ZM111.228 60.0435C111.419 60.224 111.515 60.4681 111.515 60.7227C111.515 60.9774 111.408 61.2215 111.228 61.4019C110.845 61.784 110.218 61.784 109.835 61.4019C109.644 61.2215 109.548 60.9774 109.548 60.7227C109.548 60.4681 109.654 60.224 109.835 60.0435L110.537 59.3644L111.238 60.0435H111.228ZM110.526 57.815L109.133 56.446L110.526 55.077L111.919 56.446L110.526 57.815ZM115.597 57.1358C115.214 57.5178 114.587 57.5178 114.204 57.1358L113.503 56.4566L114.204 55.7774C114.396 55.597 114.64 55.4909 114.906 55.4909C115.172 55.4909 115.416 55.5864 115.607 55.7774C115.99 56.1595 115.99 56.7644 115.607 57.1464L115.597 57.1358Z" fill="#D22832"/>
<path d="M12.7136 80.4051C12.3203 80.0124 11.7887 79.8002 11.2253 79.8002C10.6619 79.8002 10.1304 80.0124 9.73702 80.4051L9.0354 81.0843L7.6428 79.7153L8.34442 79.0361C9.16297 78.2296 9.16297 76.9243 8.34442 76.1283C7.52586 75.3218 6.18641 75.3218 5.36785 76.1283C4.5493 76.9349 4.5493 78.2402 5.36785 79.0361L6.06947 79.7153L4.67687 81.0843L3.97525 80.4051C3.15669 79.5985 1.81724 79.5985 0.998682 80.4051C0.180127 81.2116 0.180127 82.5169 0.998682 83.3128C1.41327 83.7161 1.94481 83.9177 2.48697 83.9177C3.02913 83.9177 3.56065 83.7161 3.97525 83.3128L4.67687 82.6337L6.06947 84.0026L5.36785 84.6818C4.97452 85.0745 4.75128 85.5839 4.75128 86.1357C4.75128 86.6875 4.97452 87.2075 5.36785 87.5896C5.78244 87.9928 6.31398 88.1945 6.85614 88.1945C7.3983 88.1945 7.92982 87.9928 8.34442 87.5896C8.75901 87.1863 8.96099 86.6875 8.96099 86.1357C8.96099 85.5839 8.73775 85.0639 8.34442 84.6818L7.6428 84.0026L9.0354 82.6337L9.73702 83.3128C10.1516 83.7161 10.6832 83.9177 11.2253 83.9177C11.7675 83.9177 12.299 83.7161 12.7136 83.3128C13.5321 82.5063 13.5321 81.201 12.7136 80.4051ZM6.15452 78.2614C5.77182 77.8794 5.77182 77.2745 6.15452 76.8924C6.34587 76.7014 6.60101 76.6059 6.85614 76.6059C7.11128 76.6059 7.3664 76.7014 7.55775 76.8924C7.94045 77.2745 7.94045 77.8794 7.55775 78.2614L6.85614 78.9406L6.15452 78.2614ZM3.17795 82.5381C2.79525 82.9202 2.16805 82.9202 1.78535 82.5381C1.40265 82.1561 1.40265 81.5512 1.78535 81.1692C1.9767 80.9781 2.23184 80.8826 2.48697 80.8826C2.74211 80.8826 2.99723 80.9781 3.18858 81.1692L3.8902 81.8483L3.18858 82.5275L3.17795 82.5381ZM7.55775 85.4459C7.7491 85.6263 7.84478 85.8704 7.84478 86.1251C7.84478 86.3798 7.73847 86.6239 7.55775 86.8043C7.17505 87.1863 6.54785 87.1863 6.16514 86.8043C5.97379 86.6239 5.87813 86.3798 5.87813 86.1251C5.87813 85.8704 5.98443 85.6263 6.16514 85.4459L6.86677 84.7667L7.56839 85.4459H7.55775ZM6.85614 83.2173L5.46354 81.8483L6.85614 80.4794L8.24875 81.8483L6.85614 83.2173ZM11.9269 82.5381C11.5442 82.9202 10.917 82.9202 10.5343 82.5381L9.83269 81.859L10.5343 81.1798C10.7257 80.9994 10.9702 80.8932 11.2359 80.8932C11.5017 80.8932 11.7462 80.9888 11.9376 81.1798C12.3203 81.5618 12.3203 82.1667 11.9376 82.5488L11.9269 82.5381Z" fill="#D22832"/>
<path d="M38.6316 80.4051C38.2382 80.0124 37.7067 79.8002 37.1433 79.8002C36.5798 79.8002 36.0483 80.0124 35.655 80.4051L34.9534 81.0843L33.5608 79.7153L34.2624 79.0361C35.0809 78.2296 35.0809 76.9243 34.2624 76.1283C33.4438 75.3218 32.1044 75.3218 31.2858 76.1283C30.4673 76.9349 30.4673 78.2402 31.2858 79.0361L31.9874 79.7153L30.5948 81.0843L29.8932 80.4051C29.0747 79.5985 27.7352 79.5985 26.9167 80.4051C26.0981 81.2116 26.0981 82.5169 26.9167 83.3128C27.3312 83.7161 27.8628 83.9177 28.4049 83.9177C28.9471 83.9177 29.4786 83.7161 29.8932 83.3128L30.5948 82.6337L31.9874 84.0026L31.2858 84.6818C30.8925 85.0745 30.6692 85.5839 30.6692 86.1357C30.6692 86.6875 30.8925 87.2075 31.2858 87.5896C31.7004 87.9928 32.2319 88.1945 32.7741 88.1945C33.3163 88.1945 33.8478 87.9928 34.2624 87.5896C34.677 87.1863 34.879 86.6875 34.879 86.1357C34.879 85.5839 34.6557 85.0639 34.2624 84.6818L33.5608 84.0026L34.9534 82.6337L35.655 83.3128C36.0696 83.7161 36.6011 83.9177 37.1433 83.9177C37.6854 83.9177 38.217 83.7161 38.6316 83.3128C39.4501 82.5063 39.4501 81.201 38.6316 80.4051ZM32.0725 78.2614C31.6898 77.8794 31.6898 77.2745 32.0725 76.8924C32.2638 76.7014 32.519 76.6059 32.7741 76.6059C33.0292 76.6059 33.2844 76.7014 33.4757 76.8924C33.8584 77.2745 33.8584 77.8794 33.4757 78.2614L32.7741 78.9406L32.0725 78.2614ZM29.0959 82.5381C28.7132 82.9202 28.086 82.9202 27.7033 82.5381C27.3206 82.1561 27.3206 81.5512 27.7033 81.1692C27.8947 80.9781 28.1498 80.8826 28.4049 80.8826C28.6601 80.8826 28.9152 80.9781 29.1065 81.1692L29.8082 81.8483L29.1065 82.5275L29.0959 82.5381ZM33.4757 85.4459C33.6671 85.6263 33.7627 85.8704 33.7627 86.1251C33.7627 86.3798 33.6564 86.6239 33.4757 86.8043C33.093 87.1863 32.4658 87.1863 32.0831 86.8043C31.8918 86.6239 31.7961 86.3798 31.7961 86.1251C31.7961 85.8704 31.9024 85.6263 32.0831 85.4459L32.7847 84.7667L33.4863 85.4459H33.4757ZM32.7741 83.2173L31.3815 81.8483L32.7741 80.4794L34.1667 81.8483L32.7741 83.2173ZM37.8449 82.5381C37.4622 82.9202 36.835 82.9202 36.4523 82.5381L35.7507 81.859L36.4523 81.1798C36.6436 80.9994 36.8881 80.8932 37.1539 80.8932C37.4197 80.8932 37.6642 80.9888 37.8555 81.1798C38.2382 81.5618 38.2382 82.1667 37.8555 82.5488L37.8449 82.5381Z" fill="#D22832"/>
<path d="M64.5476 80.4051C64.1542 80.0124 63.6227 79.8002 63.0593 79.8002C62.4959 79.8002 61.9643 80.0124 61.571 80.4051L60.8694 81.0843L59.4768 79.7153L60.1784 79.0361C60.9969 78.2296 60.9969 76.9243 60.1784 76.1283C59.3598 75.3218 58.0204 75.3218 57.2018 76.1283C56.3833 76.9349 56.3833 78.2402 57.2018 79.0361L57.9034 79.7153L56.5108 81.0843L55.8092 80.4051C54.9907 79.5985 53.6512 79.5985 52.8327 80.4051C52.0141 81.2116 52.0141 82.5169 52.8327 83.3128C53.2473 83.7161 53.7788 83.9177 54.3209 83.9177C54.8631 83.9177 55.3946 83.7161 55.8092 83.3128L56.5108 82.6337L57.9034 84.0026L57.2018 84.6818C56.8085 85.0745 56.5853 85.5839 56.5853 86.1357C56.5853 86.6875 56.8085 87.2075 57.2018 87.5896C57.6164 87.9928 58.148 88.1945 58.6901 88.1945C59.2323 88.1945 59.7638 87.9928 60.1784 87.5896C60.5717 87.1969 60.795 86.6875 60.795 86.1357C60.795 85.5839 60.5717 85.0639 60.1784 84.6818L59.4768 84.0026L60.8694 82.6337L61.571 83.3128C61.9856 83.7161 62.5171 83.9177 63.0593 83.9177C63.6014 83.9177 64.133 83.7161 64.5476 83.3128C65.3661 82.5063 65.3661 81.201 64.5476 80.4051ZM57.9885 78.2614C57.6058 77.8794 57.6058 77.2745 57.9885 76.8924C58.1798 76.7014 58.435 76.6059 58.6901 76.6059C58.9452 76.6059 59.2004 76.7014 59.3917 76.8924C59.7744 77.2745 59.7744 77.8794 59.3917 78.2614L58.6901 78.9406L57.9885 78.2614ZM55.0119 82.5381C54.6292 82.9202 54.002 82.9202 53.6193 82.5381C53.2366 82.1561 53.2366 81.5512 53.6193 81.1692C53.8107 80.9781 54.0658 80.8826 54.3209 80.8826C54.5761 80.8826 54.8312 80.9781 55.0226 81.1692L55.7242 81.8483L55.0226 82.5275L55.0119 82.5381ZM59.3917 85.4459C59.5831 85.6263 59.6788 85.8704 59.6788 86.1251C59.6788 86.3798 59.5725 86.6239 59.3917 86.8043C59.009 87.1863 58.3818 87.1863 57.9991 86.8043C57.8078 86.6239 57.7121 86.3798 57.7121 86.1251C57.7121 85.8704 57.8184 85.6263 57.9991 85.4459L58.7007 84.7667L59.4024 85.4459H59.3917ZM58.6901 83.2173L57.2975 81.8483L58.6901 80.4794L60.0827 81.8483L58.6901 83.2173ZM63.7609 82.5381C63.3782 82.9202 62.751 82.9202 62.3683 82.5381L61.6667 81.859L62.3683 81.1798C62.5596 80.9994 62.8041 80.8932 63.0699 80.8932C63.3357 80.8932 63.5802 80.9888 63.7715 81.1798C64.1542 81.5618 64.1542 82.1667 63.7715 82.5488L63.7609 82.5381Z" fill="#D22832"/>
<path d="M90.4655 80.4051C90.0722 80.0124 89.5407 79.8002 88.9773 79.8002C88.4138 79.8002 87.8823 80.0124 87.489 80.4051L86.7874 81.0843L85.3947 79.7153L86.0964 79.0361C86.9149 78.2296 86.9149 76.9243 86.0964 76.1283C85.2778 75.3218 83.9384 75.3218 83.1198 76.1283C82.3012 76.9349 82.3012 78.2402 83.1198 79.0361L83.8214 79.7153L82.4288 81.0843L81.7272 80.4051C80.9086 79.5985 79.5692 79.5985 78.7506 80.4051C77.9321 81.2116 77.9321 82.5169 78.7506 83.3128C79.1652 83.7161 79.6968 83.9177 80.2389 83.9177C80.7811 83.9177 81.3126 83.7161 81.7272 83.3128L82.4288 82.6337L83.8214 84.0026L83.1198 84.6818C82.7265 85.0745 82.5032 85.5839 82.5032 86.1357C82.5032 86.6875 82.7265 87.2075 83.1198 87.5896C83.5344 87.9928 84.0659 88.1945 84.6081 88.1945C85.1503 88.1945 85.6818 87.9928 86.0964 87.5896C86.511 87.1863 86.7129 86.6875 86.7129 86.1357C86.7129 85.5839 86.4897 85.0639 86.0964 84.6818L85.3947 84.0026L86.7874 82.6337L87.489 83.3128C87.9036 83.7161 88.4351 83.9177 88.9773 83.9177C89.5194 83.9177 90.0509 83.7161 90.4655 83.3128C91.2841 82.5063 91.2841 81.201 90.4655 80.4051ZM83.9065 78.2614C83.5238 77.8794 83.5238 77.2745 83.9065 76.8924C84.0978 76.7014 84.353 76.6059 84.6081 76.6059C84.8632 76.6059 85.1184 76.7014 85.3097 76.8924C85.6924 77.2745 85.6924 77.8794 85.3097 78.2614L84.6081 78.9406L83.9065 78.2614ZM80.9299 82.5381C80.5472 82.9202 79.92 82.9202 79.5373 82.5381C79.1546 82.1561 79.1546 81.5512 79.5373 81.1692C79.7287 80.9781 79.9838 80.8826 80.2389 80.8826C80.4941 80.8826 80.7492 80.9781 80.9405 81.1692L81.6422 81.8483L80.9405 82.5275L80.9299 82.5381ZM85.3097 85.4459C85.5011 85.6263 85.5967 85.8704 85.5967 86.1251C85.5967 86.3798 85.4904 86.6239 85.3097 86.8043C84.927 87.1863 84.2998 87.1863 83.9171 86.8043C83.7257 86.6239 83.6301 86.3798 83.6301 86.1251C83.6301 85.8704 83.7364 85.6263 83.9171 85.4459L84.6187 84.7667L85.3203 85.4459H85.3097ZM84.6081 83.2173L83.2155 81.8483L84.6081 80.4794L86.0007 81.8483L84.6081 83.2173ZM89.6789 82.5381C89.2962 82.9202 88.669 82.9202 88.2863 82.5381L87.5847 81.859L88.2863 81.1798C88.4776 80.9994 88.7221 80.8932 88.9879 80.8932C89.2537 80.8932 89.4982 80.9888 89.6895 81.1798C90.0722 81.5618 90.0722 82.1667 89.6895 82.5488L89.6789 82.5381Z" fill="#D22832"/>
<path d="M116.384 80.4051C115.99 80.0124 115.459 79.8002 114.895 79.8002C114.332 79.8002 113.8 80.0124 113.407 80.4051L112.705 81.0843L111.313 79.7153L112.014 79.0361C112.833 78.2296 112.833 76.9243 112.014 76.1283C111.196 75.3218 109.856 75.3218 109.038 76.1283C108.219 76.9349 108.219 78.2402 109.038 79.0361L109.739 79.7153L108.347 81.0843L107.645 80.4051C106.827 79.5985 105.487 79.5985 104.669 80.4051C103.85 81.2116 103.85 82.5169 104.669 83.3128C105.083 83.7161 105.615 83.9177 106.157 83.9177C106.699 83.9177 107.231 83.7161 107.645 83.3128L108.347 82.6337L109.739 84.0026L109.038 84.6818C108.644 85.0745 108.421 85.5839 108.421 86.1357C108.421 86.6875 108.644 87.2075 109.038 87.5896C109.452 87.9928 109.984 88.1945 110.526 88.1945C111.068 88.1945 111.6 87.9928 112.014 87.5896C112.429 87.1863 112.631 86.6875 112.631 86.1357C112.631 85.5839 112.408 85.0639 112.014 84.6818L111.313 84.0026L112.705 82.6337L113.407 83.3128C113.822 83.7161 114.353 83.9177 114.895 83.9177C115.437 83.9177 115.969 83.7161 116.384 83.3128C117.202 82.5063 117.202 81.201 116.384 80.4051ZM109.824 78.2614C109.442 77.8794 109.442 77.2745 109.824 76.8924C110.016 76.7014 110.271 76.6059 110.526 76.6059C110.781 76.6059 111.036 76.7014 111.228 76.8924C111.61 77.2745 111.61 77.8794 111.228 78.2614L110.526 78.9406L109.824 78.2614ZM106.848 82.5381C106.465 82.9202 105.838 82.9202 105.455 82.5381C105.073 82.1561 105.073 81.5512 105.455 81.1692C105.647 80.9781 105.902 80.8826 106.157 80.8826C106.412 80.8826 106.667 80.9781 106.859 81.1692L107.56 81.8483L106.859 82.5275L106.848 82.5381ZM111.228 85.4459C111.419 85.6263 111.515 85.8704 111.515 86.1251C111.515 86.3798 111.408 86.6239 111.228 86.8043C110.845 87.1863 110.218 87.1863 109.835 86.8043C109.644 86.6239 109.548 86.3798 109.548 86.1251C109.548 85.8704 109.654 85.6263 109.835 85.4459L110.537 84.7667L111.238 85.4459H111.228ZM110.526 83.2173L109.133 81.8483L110.526 80.4794L111.919 81.8483L110.526 83.2173ZM115.597 82.5381C115.214 82.9202 114.587 82.9202 114.204 82.5381L113.503 81.859L114.204 81.1798C114.396 80.9994 114.64 80.8932 114.906 80.8932C115.172 80.8932 115.416 80.9888 115.607 81.1798C115.99 81.5618 115.99 82.1667 115.607 82.5488L115.597 82.5381Z" fill="#D22832"/>
<path d="M12.7136 105.813C12.3203 105.421 11.7887 105.208 11.2253 105.208C10.6619 105.208 10.1304 105.421 9.73702 105.813L9.0354 106.492L7.6428 105.123L8.34442 104.444C9.16297 103.638 9.16297 102.332 8.34442 101.537C7.52586 100.73 6.18641 100.73 5.36785 101.537C4.5493 102.343 4.5493 103.648 5.36785 104.444L6.06947 105.123L4.67687 106.492L3.97525 105.813C3.15669 105.007 1.81724 105.007 0.998682 105.813C0.180127 106.62 0.180127 107.925 0.998682 108.721C1.41327 109.124 1.94481 109.326 2.48697 109.326C3.02913 109.326 3.56065 109.124 3.97525 108.721L4.67687 108.042L6.06947 109.411L5.36785 110.09C4.97452 110.483 4.75128 110.992 4.75128 111.544C4.75128 112.096 4.97452 112.616 5.36785 112.998C5.78244 113.401 6.31398 113.603 6.85614 113.603C7.3983 113.603 7.92982 113.401 8.34442 112.998C8.75901 112.595 8.96099 112.096 8.96099 111.544C8.96099 110.992 8.73775 110.472 8.34442 110.09L7.6428 109.411L9.0354 108.042L9.73702 108.721C10.1516 109.124 10.6832 109.326 11.2253 109.326C11.7675 109.326 12.299 109.124 12.7136 108.721C13.5321 107.915 13.5321 106.609 12.7136 105.813ZM6.15452 103.67C5.77182 103.288 5.77182 102.683 6.15452 102.301C6.34587 102.11 6.60101 102.014 6.85614 102.014C7.11128 102.014 7.3664 102.11 7.55775 102.301C7.94045 102.683 7.94045 103.288 7.55775 103.67L6.85614 104.349L6.15452 103.67ZM3.17795 107.946C2.79525 108.328 2.16805 108.328 1.78535 107.946C1.40265 107.564 1.40265 106.959 1.78535 106.577C1.9767 106.386 2.23184 106.291 2.48697 106.291C2.74211 106.291 2.99723 106.386 3.18858 106.577L3.8902 107.257L3.18858 107.936L3.17795 107.946ZM7.55775 110.854C7.7491 111.035 7.84478 111.279 7.84478 111.533C7.84478 111.788 7.73847 112.032 7.55775 112.212C7.17505 112.595 6.54785 112.595 6.16514 112.212C5.97379 112.032 5.87813 111.788 5.87813 111.533C5.87813 111.279 5.98443 111.035 6.16514 110.854L6.86677 110.175L7.56839 110.854H7.55775ZM6.85614 108.626L5.46354 107.257L6.85614 105.888L8.24875 107.257L6.85614 108.626ZM11.9269 107.946C11.5442 108.328 10.917 108.328 10.5343 107.946L9.83269 107.267L10.5343 106.588C10.7257 106.408 10.9702 106.301 11.2359 106.301C11.5017 106.301 11.7462 106.397 11.9376 106.588C12.3203 106.97 12.3203 107.575 11.9376 107.957L11.9269 107.946Z" fill="#D22832"/>
<path d="M38.6316 105.813C38.2382 105.421 37.7067 105.208 37.1433 105.208C36.5798 105.208 36.0483 105.421 35.655 105.813L34.9534 106.492L33.5608 105.123L34.2624 104.444C35.0809 103.638 35.0809 102.332 34.2624 101.537C33.4438 100.73 32.1044 100.73 31.2858 101.537C30.4673 102.343 30.4673 103.648 31.2858 104.444L31.9874 105.123L30.5948 106.492L29.8932 105.813C29.0747 105.007 27.7352 105.007 26.9167 105.813C26.0981 106.62 26.0981 107.925 26.9167 108.721C27.3312 109.124 27.8628 109.326 28.4049 109.326C28.9471 109.326 29.4786 109.124 29.8932 108.721L30.5948 108.042L31.9874 109.411L31.2858 110.09C30.8925 110.483 30.6692 110.992 30.6692 111.544C30.6692 112.096 30.8925 112.616 31.2858 112.998C31.7004 113.401 32.2319 113.603 32.7741 113.603C33.3163 113.603 33.8478 113.401 34.2624 112.998C34.677 112.595 34.879 112.096 34.879 111.544C34.879 110.992 34.6557 110.472 34.2624 110.09L33.5608 109.411L34.9534 108.042L35.655 108.721C36.0696 109.124 36.6011 109.326 37.1433 109.326C37.6854 109.326 38.217 109.124 38.6316 108.721C39.4501 107.915 39.4501 106.609 38.6316 105.813ZM32.0725 103.67C31.6898 103.288 31.6898 102.683 32.0725 102.301C32.2638 102.11 32.519 102.014 32.7741 102.014C33.0292 102.014 33.2844 102.11 33.4757 102.301C33.8584 102.683 33.8584 103.288 33.4757 103.67L32.7741 104.349L32.0725 103.67ZM29.0959 107.946C28.7132 108.328 28.086 108.328 27.7033 107.946C27.3206 107.564 27.3206 106.959 27.7033 106.577C27.8947 106.386 28.1498 106.291 28.4049 106.291C28.6601 106.291 28.9152 106.386 29.1065 106.577L29.8082 107.257L29.1065 107.936L29.0959 107.946ZM33.4757 110.854C33.6671 111.035 33.7627 111.279 33.7627 111.533C33.7627 111.788 33.6564 112.032 33.4757 112.212C33.093 112.595 32.4658 112.595 32.0831 112.212C31.8918 112.032 31.7961 111.788 31.7961 111.533C31.7961 111.279 31.9024 111.035 32.0831 110.854L32.7847 110.175L33.4863 110.854H33.4757ZM32.7741 108.626L31.3815 107.257L32.7741 105.888L34.1667 107.257L32.7741 108.626ZM37.8449 107.946C37.4622 108.328 36.835 108.328 36.4523 107.946L35.7507 107.267L36.4523 106.588C36.6436 106.408 36.8881 106.301 37.1539 106.301C37.4197 106.301 37.6642 106.397 37.8555 106.588C38.2382 106.97 38.2382 107.575 37.8555 107.957L37.8449 107.946Z" fill="#D22832"/>
<path d="M64.5476 105.813C64.1542 105.421 63.6227 105.208 63.0593 105.208C62.4959 105.208 61.9643 105.421 61.571 105.813L60.8694 106.492L59.4768 105.123L60.1784 104.444C60.9969 103.638 60.9969 102.332 60.1784 101.537C59.3598 100.73 58.0204 100.73 57.2018 101.537C56.3833 102.343 56.3833 103.648 57.2018 104.444L57.9034 105.123L56.5108 106.492L55.8092 105.813C54.9907 105.007 53.6512 105.007 52.8327 105.813C52.0141 106.62 52.0141 107.925 52.8327 108.721C53.2473 109.124 53.7788 109.326 54.3209 109.326C54.8631 109.326 55.3946 109.124 55.8092 108.721L56.5108 108.042L57.9034 109.411L57.2018 110.09C56.8085 110.483 56.5853 110.992 56.5853 111.544C56.5853 112.096 56.8085 112.616 57.2018 112.998C57.6164 113.401 58.148 113.603 58.6901 113.603C59.2323 113.603 59.7638 113.401 60.1784 112.998C60.5717 112.605 60.795 112.096 60.795 111.544C60.795 110.992 60.5717 110.472 60.1784 110.09L59.4768 109.411L60.8694 108.042L61.571 108.721C61.9856 109.124 62.5171 109.326 63.0593 109.326C63.6014 109.326 64.133 109.124 64.5476 108.721C65.3661 107.915 65.3661 106.609 64.5476 105.813ZM57.9885 103.67C57.6058 103.288 57.6058 102.683 57.9885 102.301C58.1798 102.11 58.435 102.014 58.6901 102.014C58.9452 102.014 59.2004 102.11 59.3917 102.301C59.7744 102.683 59.7744 103.288 59.3917 103.67L58.6901 104.349L57.9885 103.67ZM55.0119 107.946C54.6292 108.328 54.002 108.328 53.6193 107.946C53.2366 107.564 53.2366 106.959 53.6193 106.577C53.8107 106.386 54.0658 106.291 54.3209 106.291C54.5761 106.291 54.8312 106.386 55.0226 106.577L55.7242 107.257L55.0226 107.936L55.0119 107.946ZM59.3917 110.854C59.5831 111.035 59.6788 111.279 59.6788 111.533C59.6788 111.788 59.5725 112.032 59.3917 112.212C59.009 112.595 58.3818 112.595 57.9991 112.212C57.8078 112.032 57.7121 111.788 57.7121 111.533C57.7121 111.279 57.8184 111.035 57.9991 110.854L58.7007 110.175L59.4024 110.854H59.3917ZM58.6901 108.626L57.2975 107.257L58.6901 105.888L60.0827 107.257L58.6901 108.626ZM63.7609 107.946C63.3782 108.328 62.751 108.328 62.3683 107.946L61.6667 107.267L62.3683 106.588C62.5596 106.408 62.8041 106.301 63.0699 106.301C63.3357 106.301 63.5802 106.397 63.7715 106.588C64.1542 106.97 64.1542 107.575 63.7715 107.957L63.7609 107.946Z" fill="#D22832"/>
<path d="M90.4655 105.813C90.0722 105.421 89.5407 105.208 88.9773 105.208C88.4138 105.208 87.8823 105.421 87.489 105.813L86.7874 106.492L85.3947 105.123L86.0964 104.444C86.9149 103.638 86.9149 102.332 86.0964 101.537C85.2778 100.73 83.9384 100.73 83.1198 101.537C82.3012 102.343 82.3012 103.648 83.1198 104.444L83.8214 105.123L82.4288 106.492L81.7272 105.813C80.9086 105.007 79.5692 105.007 78.7506 105.813C77.9321 106.62 77.9321 107.925 78.7506 108.721C79.1652 109.124 79.6968 109.326 80.2389 109.326C80.7811 109.326 81.3126 109.124 81.7272 108.721L82.4288 108.042L83.8214 109.411L83.1198 110.09C82.7265 110.483 82.5032 110.992 82.5032 111.544C82.5032 112.096 82.7265 112.616 83.1198 112.998C83.5344 113.401 84.0659 113.603 84.6081 113.603C85.1503 113.603 85.6818 113.401 86.0964 112.998C86.511 112.595 86.7129 112.096 86.7129 111.544C86.7129 110.992 86.4897 110.472 86.0964 110.09L85.3947 109.411L86.7874 108.042L87.489 108.721C87.9036 109.124 88.4351 109.326 88.9773 109.326C89.5194 109.326 90.0509 109.124 90.4655 108.721C91.2841 107.915 91.2841 106.609 90.4655 105.813ZM83.9065 103.67C83.5238 103.288 83.5238 102.683 83.9065 102.301C84.0978 102.11 84.353 102.014 84.6081 102.014C84.8632 102.014 85.1184 102.11 85.3097 102.301C85.6924 102.683 85.6924 103.288 85.3097 103.67L84.6081 104.349L83.9065 103.67ZM80.9299 107.946C80.5472 108.328 79.92 108.328 79.5373 107.946C79.1546 107.564 79.1546 106.959 79.5373 106.577C79.7287 106.386 79.9838 106.291 80.2389 106.291C80.4941 106.291 80.7492 106.386 80.9405 106.577L81.6422 107.257L80.9405 107.936L80.9299 107.946ZM85.3097 110.854C85.5011 111.035 85.5967 111.279 85.5967 111.533C85.5967 111.788 85.4904 112.032 85.3097 112.212C84.927 112.595 84.2998 112.595 83.9171 112.212C83.7257 112.032 83.6301 111.788 83.6301 111.533C83.6301 111.279 83.7364 111.035 83.9171 110.854L84.6187 110.175L85.3203 110.854H85.3097ZM84.6081 108.626L83.2155 107.257L84.6081 105.888L86.0007 107.257L84.6081 108.626ZM89.6789 107.946C89.2962 108.328 88.669 108.328 88.2863 107.946L87.5847 107.267L88.2863 106.588C88.4776 106.408 88.7221 106.301 88.9879 106.301C89.2537 106.301 89.4982 106.397 89.6895 106.588C90.0722 106.97 90.0722 107.575 89.6895 107.957L89.6789 107.946Z" fill="#D22832"/>
<path d="M116.384 105.813C115.99 105.421 115.459 105.208 114.895 105.208C114.332 105.208 113.8 105.421 113.407 105.813L112.705 106.492L111.313 105.123L112.014 104.444C112.833 103.638 112.833 102.332 112.014 101.537C111.196 100.73 109.856 100.73 109.038 101.537C108.219 102.343 108.219 103.648 109.038 104.444L109.739 105.123L108.347 106.492L107.645 105.813C106.827 105.007 105.487 105.007 104.669 105.813C103.85 106.62 103.85 107.925 104.669 108.721C105.083 109.124 105.615 109.326 106.157 109.326C106.699 109.326 107.231 109.124 107.645 108.721L108.347 108.042L109.739 109.411L109.038 110.09C108.644 110.483 108.421 110.992 108.421 111.544C108.421 112.096 108.644 112.616 109.038 112.998C109.452 113.401 109.984 113.603 110.526 113.603C111.068 113.603 111.6 113.401 112.014 112.998C112.429 112.595 112.631 112.096 112.631 111.544C112.631 110.992 112.408 110.472 112.014 110.09L111.313 109.411L112.705 108.042L113.407 108.721C113.822 109.124 114.353 109.326 114.895 109.326C115.437 109.326 115.969 109.124 116.384 108.721C117.202 107.915 117.202 106.609 116.384 105.813ZM109.824 103.67C109.442 103.288 109.442 102.683 109.824 102.301C110.016 102.11 110.271 102.014 110.526 102.014C110.781 102.014 111.036 102.11 111.228 102.301C111.61 102.683 111.61 103.288 111.228 103.67L110.526 104.349L109.824 103.67ZM106.848 107.946C106.465 108.328 105.838 108.328 105.455 107.946C105.073 107.564 105.073 106.959 105.455 106.577C105.647 106.386 105.902 106.291 106.157 106.291C106.412 106.291 106.667 106.386 106.859 106.577L107.56 107.257L106.859 107.936L106.848 107.946ZM111.228 110.854C111.419 111.035 111.515 111.279 111.515 111.533C111.515 111.788 111.408 112.032 111.228 112.212C110.845 112.595 110.218 112.595 109.835 112.212C109.644 112.032 109.548 111.788 109.548 111.533C109.548 111.279 109.654 111.035 109.835 110.854L110.537 110.175L111.238 110.854H111.228ZM110.526 108.626L109.133 107.257L110.526 105.888L111.919 107.257L110.526 108.626ZM115.597 107.946C115.214 108.328 114.587 108.328 114.204 107.946L113.503 107.267L114.204 106.588C114.396 106.408 114.64 106.301 114.906 106.301C115.172 106.301 115.416 106.397 115.607 106.588C115.99 106.97 115.99 107.575 115.607 107.957L115.597 107.946Z" fill="#D22832"/>
<path d="M12.7136 131.221C12.3203 130.828 11.7887 130.616 11.2253 130.616C10.6619 130.616 10.1304 130.828 9.73702 131.221L9.0354 131.9L7.6428 130.531L8.34442 129.852C9.16297 129.045 9.16297 127.74 8.34442 126.944C7.52586 126.137 6.18641 126.137 5.36785 126.944C4.5493 127.75 4.5493 129.056 5.36785 129.852L6.06947 130.531L4.67687 131.9L3.97525 131.221C3.15669 130.414 1.81724 130.414 0.998682 131.221C0.180127 132.027 0.180127 133.332 0.998682 134.128C1.41327 134.532 1.94481 134.733 2.48697 134.733C3.02913 134.733 3.56065 134.532 3.97525 134.128L4.67687 133.449L6.06947 134.818L5.36785 135.497C4.97452 135.89 4.75128 136.399 4.75128 136.951C4.75128 137.503 4.97452 138.023 5.36785 138.405C5.78244 138.808 6.31398 139.01 6.85614 139.01C7.3983 139.01 7.92982 138.808 8.34442 138.405C8.75901 138.002 8.96099 137.503 8.96099 136.951C8.96099 136.399 8.73775 135.879 8.34442 135.497L7.6428 134.818L9.0354 133.449L9.73702 134.128C10.1516 134.532 10.6832 134.733 11.2253 134.733C11.7675 134.733 12.299 134.532 12.7136 134.128C13.5321 133.322 13.5321 132.016 12.7136 131.221ZM6.15452 129.077C5.77182 128.695 5.77182 128.09 6.15452 127.708C6.34587 127.517 6.60101 127.421 6.85614 127.421C7.11128 127.421 7.3664 127.517 7.55775 127.708C7.94045 128.09 7.94045 128.695 7.55775 129.077L6.85614 129.756L6.15452 129.077ZM3.17795 133.354C2.79525 133.736 2.16805 133.736 1.78535 133.354C1.40265 132.972 1.40265 132.367 1.78535 131.985C1.9767 131.794 2.23184 131.698 2.48697 131.698C2.74211 131.698 2.99723 131.794 3.18858 131.985L3.8902 132.664L3.18858 133.343L3.17795 133.354ZM7.55775 136.261C7.7491 136.442 7.84478 136.686 7.84478 136.941C7.84478 137.195 7.73847 137.439 7.55775 137.62C7.17505 138.002 6.54785 138.002 6.16514 137.62C5.97379 137.439 5.87813 137.195 5.87813 136.941C5.87813 136.686 5.98443 136.442 6.16514 136.261L6.86677 135.582L7.56839 136.261H7.55775ZM6.85614 134.033L5.46354 132.664L6.85614 131.295L8.24875 132.664L6.85614 134.033ZM11.9269 133.354C11.5442 133.736 10.917 133.736 10.5343 133.354L9.83269 132.674L10.5343 131.995C10.7257 131.815 10.9702 131.709 11.2359 131.709C11.5017 131.709 11.7462 131.804 11.9376 131.995C12.3203 132.377 12.3203 132.982 11.9376 133.364L11.9269 133.354Z" fill="#D22832"/>
<path d="M38.6316 131.221C38.2382 130.828 37.7067 130.616 37.1433 130.616C36.5798 130.616 36.0483 130.828 35.655 131.221L34.9534 131.9L33.5608 130.531L34.2624 129.852C35.0809 129.045 35.0809 127.74 34.2624 126.944C33.4438 126.137 32.1044 126.137 31.2858 126.944C30.4673 127.75 30.4673 129.056 31.2858 129.852L31.9874 130.531L30.5948 131.9L29.8932 131.221C29.0747 130.414 27.7352 130.414 26.9167 131.221C26.0981 132.027 26.0981 133.332 26.9167 134.128C27.3312 134.532 27.8628 134.733 28.4049 134.733C28.9471 134.733 29.4786 134.532 29.8932 134.128L30.5948 133.449L31.9874 134.818L31.2858 135.497C30.8925 135.89 30.6692 136.399 30.6692 136.951C30.6692 137.503 30.8925 138.023 31.2858 138.405C31.7004 138.808 32.2319 139.01 32.7741 139.01C33.3163 139.01 33.8478 138.808 34.2624 138.405C34.677 138.002 34.879 137.503 34.879 136.951C34.879 136.399 34.6557 135.879 34.2624 135.497L33.5608 134.818L34.9534 133.449L35.655 134.128C36.0696 134.532 36.6011 134.733 37.1433 134.733C37.6854 134.733 38.217 134.532 38.6316 134.128C39.4501 133.322 39.4501 132.016 38.6316 131.221ZM32.0725 129.077C31.6898 128.695 31.6898 128.09 32.0725 127.708C32.2638 127.517 32.519 127.421 32.7741 127.421C33.0292 127.421 33.2844 127.517 33.4757 127.708C33.8584 128.09 33.8584 128.695 33.4757 129.077L32.7741 129.756L32.0725 129.077ZM29.0959 133.354C28.7132 133.736 28.086 133.736 27.7033 133.354C27.3206 132.972 27.3206 132.367 27.7033 131.985C27.8947 131.794 28.1498 131.698 28.4049 131.698C28.6601 131.698 28.9152 131.794 29.1065 131.985L29.8082 132.664L29.1065 133.343L29.0959 133.354ZM33.4757 136.261C33.6671 136.442 33.7627 136.686 33.7627 136.941C33.7627 137.195 33.6564 137.439 33.4757 137.62C33.093 138.002 32.4658 138.002 32.0831 137.62C31.8918 137.439 31.7961 137.195 31.7961 136.941C31.7961 136.686 31.9024 136.442 32.0831 136.261L32.7847 135.582L33.4863 136.261H33.4757ZM32.7741 134.033L31.3815 132.664L32.7741 131.295L34.1667 132.664L32.7741 134.033ZM37.8449 133.354C37.4622 133.736 36.835 133.736 36.4523 133.354L35.7507 132.674L36.4523 131.995C36.6436 131.815 36.8881 131.709 37.1539 131.709C37.4197 131.709 37.6642 131.804 37.8555 131.995C38.2382 132.377 38.2382 132.982 37.8555 133.364L37.8449 133.354Z" fill="#D22832"/>
<path d="M64.5476 131.221C64.1542 130.828 63.6227 130.616 63.0593 130.616C62.4959 130.616 61.9643 130.828 61.571 131.221L60.8694 131.9L59.4768 130.531L60.1784 129.852C60.9969 129.045 60.9969 127.74 60.1784 126.944C59.3598 126.137 58.0204 126.137 57.2018 126.944C56.3833 127.75 56.3833 129.056 57.2018 129.852L57.9034 130.531L56.5108 131.9L55.8092 131.221C54.9907 130.414 53.6512 130.414 52.8327 131.221C52.0141 132.027 52.0141 133.332 52.8327 134.128C53.2473 134.532 53.7788 134.733 54.3209 134.733C54.8631 134.733 55.3946 134.532 55.8092 134.128L56.5108 133.449L57.9034 134.818L57.2018 135.497C56.8085 135.89 56.5853 136.399 56.5853 136.951C56.5853 137.503 56.8085 138.023 57.2018 138.405C57.6164 138.808 58.148 139.01 58.6901 139.01C59.2323 139.01 59.7638 138.808 60.1784 138.405C60.5717 138.012 60.795 137.503 60.795 136.951C60.795 136.399 60.5717 135.879 60.1784 135.497L59.4768 134.818L60.8694 133.449L61.571 134.128C61.9856 134.532 62.5171 134.733 63.0593 134.733C63.6014 134.733 64.133 134.532 64.5476 134.128C65.3661 133.322 65.3661 132.016 64.5476 131.221ZM57.9885 129.077C57.6058 128.695 57.6058 128.09 57.9885 127.708C58.1798 127.517 58.435 127.421 58.6901 127.421C58.9452 127.421 59.2004 127.517 59.3917 127.708C59.7744 128.09 59.7744 128.695 59.3917 129.077L58.6901 129.756L57.9885 129.077ZM55.0119 133.354C54.6292 133.736 54.002 133.736 53.6193 133.354C53.2366 132.972 53.2366 132.367 53.6193 131.985C53.8107 131.794 54.0658 131.698 54.3209 131.698C54.5761 131.698 54.8312 131.794 55.0226 131.985L55.7242 132.664L55.0226 133.343L55.0119 133.354ZM59.3917 136.261C59.5831 136.442 59.6788 136.686 59.6788 136.941C59.6788 137.195 59.5725 137.439 59.3917 137.62C59.009 138.002 58.3818 138.002 57.9991 137.62C57.8078 137.439 57.7121 137.195 57.7121 136.941C57.7121 136.686 57.8184 136.442 57.9991 136.261L58.7007 135.582L59.4024 136.261H59.3917ZM58.6901 134.033L57.2975 132.664L58.6901 131.295L60.0827 132.664L58.6901 134.033ZM63.7609 133.354C63.3782 133.736 62.751 133.736 62.3683 133.354L61.6667 132.674L62.3683 131.995C62.5596 131.815 62.8041 131.709 63.0699 131.709C63.3357 131.709 63.5802 131.804 63.7715 131.995C64.1542 132.377 64.1542 132.982 63.7715 133.364L63.7609 133.354Z" fill="#D22832"/>
<path d="M90.4655 131.221C90.0722 130.828 89.5407 130.616 88.9773 130.616C88.4138 130.616 87.8823 130.828 87.489 131.221L86.7874 131.9L85.3947 130.531L86.0964 129.852C86.9149 129.045 86.9149 127.74 86.0964 126.944C85.2778 126.137 83.9384 126.137 83.1198 126.944C82.3012 127.75 82.3012 129.056 83.1198 129.852L83.8214 130.531L82.4288 131.9L81.7272 131.221C80.9086 130.414 79.5692 130.414 78.7506 131.221C77.9321 132.027 77.9321 133.332 78.7506 134.128C79.1652 134.532 79.6968 134.733 80.2389 134.733C80.7811 134.733 81.3126 134.532 81.7272 134.128L82.4288 133.449L83.8214 134.818L83.1198 135.497C82.7265 135.89 82.5032 136.399 82.5032 136.951C82.5032 137.503 82.7265 138.023 83.1198 138.405C83.5344 138.808 84.0659 139.01 84.6081 139.01C85.1503 139.01 85.6818 138.808 86.0964 138.405C86.511 138.002 86.7129 137.503 86.7129 136.951C86.7129 136.399 86.4897 135.879 86.0964 135.497L85.3947 134.818L86.7874 133.449L87.489 134.128C87.9036 134.532 88.4351 134.733 88.9773 134.733C89.5194 134.733 90.0509 134.532 90.4655 134.128C91.2841 133.322 91.2841 132.016 90.4655 131.221ZM83.9065 129.077C83.5238 128.695 83.5238 128.09 83.9065 127.708C84.0978 127.517 84.353 127.421 84.6081 127.421C84.8632 127.421 85.1184 127.517 85.3097 127.708C85.6924 128.09 85.6924 128.695 85.3097 129.077L84.6081 129.756L83.9065 129.077ZM80.9299 133.354C80.5472 133.736 79.92 133.736 79.5373 133.354C79.1546 132.972 79.1546 132.367 79.5373 131.985C79.7287 131.794 79.9838 131.698 80.2389 131.698C80.4941 131.698 80.7492 131.794 80.9405 131.985L81.6422 132.664L80.9405 133.343L80.9299 133.354ZM85.3097 136.261C85.5011 136.442 85.5967 136.686 85.5967 136.941C85.5967 137.195 85.4904 137.439 85.3097 137.62C84.927 138.002 84.2998 138.002 83.9171 137.62C83.7257 137.439 83.6301 137.195 83.6301 136.941C83.6301 136.686 83.7364 136.442 83.9171 136.261L84.6187 135.582L85.3203 136.261H85.3097ZM84.6081 134.033L83.2155 132.664L84.6081 131.295L86.0007 132.664L84.6081 134.033ZM89.6789 133.354C89.2962 133.736 88.669 133.736 88.2863 133.354L87.5847 132.674L88.2863 131.995C88.4776 131.815 88.7221 131.709 88.9879 131.709C89.2537 131.709 89.4982 131.804 89.6895 131.995C90.0722 132.377 90.0722 132.982 89.6895 133.364L89.6789 133.354Z" fill="#D22832"/>
<path d="M116.384 131.221C115.99 130.828 115.459 130.616 114.895 130.616C114.332 130.616 113.8 130.828 113.407 131.221L112.705 131.9L111.313 130.531L112.014 129.852C112.833 129.045 112.833 127.74 112.014 126.944C111.196 126.137 109.856 126.137 109.038 126.944C108.219 127.75 108.219 129.056 109.038 129.852L109.739 130.531L108.347 131.9L107.645 131.221C106.827 130.414 105.487 130.414 104.669 131.221C103.85 132.027 103.85 133.332 104.669 134.128C105.083 134.532 105.615 134.733 106.157 134.733C106.699 134.733 107.231 134.532 107.645 134.128L108.347 133.449L109.739 134.818L109.038 135.497C108.644 135.89 108.421 136.399 108.421 136.951C108.421 137.503 108.644 138.023 109.038 138.405C109.452 138.808 109.984 139.01 110.526 139.01C111.068 139.01 111.6 138.808 112.014 138.405C112.429 138.002 112.631 137.503 112.631 136.951C112.631 136.399 112.408 135.879 112.014 135.497L111.313 134.818L112.705 133.449L113.407 134.128C113.822 134.532 114.353 134.733 114.895 134.733C115.437 134.733 115.969 134.532 116.384 134.128C117.202 133.322 117.202 132.016 116.384 131.221ZM109.824 129.077C109.442 128.695 109.442 128.09 109.824 127.708C110.016 127.517 110.271 127.421 110.526 127.421C110.781 127.421 111.036 127.517 111.228 127.708C111.61 128.09 111.61 128.695 111.228 129.077L110.526 129.756L109.824 129.077ZM106.848 133.354C106.465 133.736 105.838 133.736 105.455 133.354C105.073 132.972 105.073 132.367 105.455 131.985C105.647 131.794 105.902 131.698 106.157 131.698C106.412 131.698 106.667 131.794 106.859 131.985L107.56 132.664L106.859 133.343L106.848 133.354ZM111.228 136.261C111.419 136.442 111.515 136.686 111.515 136.941C111.515 137.195 111.408 137.439 111.228 137.62C110.845 138.002 110.218 138.002 109.835 137.62C109.644 137.439 109.548 137.195 109.548 136.941C109.548 136.686 109.654 136.442 109.835 136.261L110.537 135.582L111.238 136.261H111.228ZM110.526 134.033L109.133 132.664L110.526 131.295L111.919 132.664L110.526 134.033ZM115.597 133.354C115.214 133.736 114.587 133.736 114.204 133.354L113.503 132.674L114.204 131.995C114.396 131.815 114.64 131.709 114.906 131.709C115.172 131.709 115.416 131.804 115.607 131.995C115.99 132.377 115.99 132.982 115.607 133.364L115.597 133.354Z" fill="#D22832"/>
<path d="M12.7136 156.893C12.3203 156.501 11.7887 156.288 11.2253 156.288C10.6619 156.288 10.1304 156.501 9.73702 156.893L9.0354 157.573L7.6428 156.204L8.34442 155.524C9.16297 154.718 9.16297 153.413 8.34442 152.617C7.52586 151.81 6.18641 151.81 5.36785 152.617C4.5493 153.423 4.5493 154.728 5.36785 155.524L6.06947 156.204L4.67687 157.573L3.97525 156.893C3.15669 156.087 1.81724 156.087 0.998682 156.893C0.180127 157.7 0.180127 159.005 0.998682 159.801C1.41327 160.204 1.94481 160.406 2.48697 160.406C3.02913 160.406 3.56065 160.204 3.97525 159.801L4.67687 159.122L6.06947 160.491L5.36785 161.17C4.97452 161.563 4.75128 162.072 4.75128 162.624C4.75128 163.176 4.97452 163.696 5.36785 164.078C5.78244 164.481 6.31398 164.683 6.85614 164.683C7.3983 164.683 7.92982 164.481 8.34442 164.078C8.75901 163.675 8.96099 163.176 8.96099 162.624C8.96099 162.072 8.73775 161.552 8.34442 161.17L7.6428 160.491L9.0354 159.122L9.73702 159.801C10.1516 160.204 10.6832 160.406 11.2253 160.406C11.7675 160.406 12.299 160.204 12.7136 159.801C13.5321 158.995 13.5321 157.689 12.7136 156.893ZM6.15452 154.75C5.77182 154.368 5.77182 153.763 6.15452 153.381C6.34587 153.19 6.60101 153.094 6.85614 153.094C7.11128 153.094 7.3664 153.19 7.55775 153.381C7.94045 153.763 7.94045 154.368 7.55775 154.75L6.85614 155.429L6.15452 154.75ZM3.17795 159.026C2.79525 159.408 2.16805 159.408 1.78535 159.026C1.40265 158.644 1.40265 158.039 1.78535 157.657C1.9767 157.466 2.23184 157.371 2.48697 157.371C2.74211 157.371 2.99723 157.466 3.18858 157.657L3.8902 158.337L3.18858 159.016L3.17795 159.026ZM7.55775 161.934C7.7491 162.115 7.84478 162.359 7.84478 162.613C7.84478 162.868 7.73847 163.112 7.55775 163.293C7.17505 163.675 6.54785 163.675 6.16514 163.293C5.97379 163.112 5.87813 162.868 5.87813 162.613C5.87813 162.359 5.98443 162.115 6.16514 161.934L6.86677 161.255L7.56839 161.934H7.55775ZM6.85614 159.706L5.46354 158.337L6.85614 156.968L8.24875 158.337L6.85614 159.706ZM11.9269 159.026C11.5442 159.408 10.917 159.408 10.5343 159.026L9.83269 158.347L10.5343 157.668C10.7257 157.488 10.9702 157.382 11.2359 157.382C11.5017 157.382 11.7462 157.477 11.9376 157.668C12.3203 158.05 12.3203 158.655 11.9376 159.037L11.9269 159.026Z" fill="#D22832"/>
<path d="M38.6316 156.893C38.2382 156.501 37.7067 156.288 37.1433 156.288C36.5798 156.288 36.0483 156.501 35.655 156.893L34.9534 157.573L33.5608 156.204L34.2624 155.524C35.0809 154.718 35.0809 153.413 34.2624 152.617C33.4438 151.81 32.1044 151.81 31.2858 152.617C30.4673 153.423 30.4673 154.728 31.2858 155.524L31.9874 156.204L30.5948 157.573L29.8932 156.893C29.0747 156.087 27.7352 156.087 26.9167 156.893C26.0981 157.7 26.0981 159.005 26.9167 159.801C27.3312 160.204 27.8628 160.406 28.4049 160.406C28.9471 160.406 29.4786 160.204 29.8932 159.801L30.5948 159.122L31.9874 160.491L31.2858 161.17C30.8925 161.563 30.6692 162.072 30.6692 162.624C30.6692 163.176 30.8925 163.696 31.2858 164.078C31.7004 164.481 32.2319 164.683 32.7741 164.683C33.3163 164.683 33.8478 164.481 34.2624 164.078C34.677 163.675 34.879 163.176 34.879 162.624C34.879 162.072 34.6557 161.552 34.2624 161.17L33.5608 160.491L34.9534 159.122L35.655 159.801C36.0696 160.204 36.6011 160.406 37.1433 160.406C37.6854 160.406 38.217 160.204 38.6316 159.801C39.4501 158.995 39.4501 157.689 38.6316 156.893ZM32.0725 154.75C31.6898 154.368 31.6898 153.763 32.0725 153.381C32.2638 153.19 32.519 153.094 32.7741 153.094C33.0292 153.094 33.2844 153.19 33.4757 153.381C33.8584 153.763 33.8584 154.368 33.4757 154.75L32.7741 155.429L32.0725 154.75ZM29.0959 159.026C28.7132 159.408 28.086 159.408 27.7033 159.026C27.3206 158.644 27.3206 158.039 27.7033 157.657C27.8947 157.466 28.1498 157.371 28.4049 157.371C28.6601 157.371 28.9152 157.466 29.1065 157.657L29.8082 158.337L29.1065 159.016L29.0959 159.026ZM33.4757 161.934C33.6671 162.115 33.7627 162.359 33.7627 162.613C33.7627 162.868 33.6564 163.112 33.4757 163.293C33.093 163.675 32.4658 163.675 32.0831 163.293C31.8918 163.112 31.7961 162.868 31.7961 162.613C31.7961 162.359 31.9024 162.115 32.0831 161.934L32.7847 161.255L33.4863 161.934H33.4757ZM32.7741 159.706L31.3815 158.337L32.7741 156.968L34.1667 158.337L32.7741 159.706ZM37.8449 159.026C37.4622 159.408 36.835 159.408 36.4523 159.026L35.7507 158.347L36.4523 157.668C36.6436 157.488 36.8881 157.382 37.1539 157.382C37.4197 157.382 37.6642 157.477 37.8555 157.668C38.2382 158.05 38.2382 158.655 37.8555 159.037L37.8449 159.026Z" fill="#D22832"/>
<path d="M64.5476 156.893C64.1542 156.501 63.6227 156.288 63.0593 156.288C62.4959 156.288 61.9643 156.501 61.571 156.893L60.8694 157.573L59.4768 156.204L60.1784 155.524C60.9969 154.718 60.9969 153.413 60.1784 152.617C59.3598 151.81 58.0204 151.81 57.2018 152.617C56.3833 153.423 56.3833 154.728 57.2018 155.524L57.9034 156.204L56.5108 157.573L55.8092 156.893C54.9907 156.087 53.6512 156.087 52.8327 156.893C52.0141 157.7 52.0141 159.005 52.8327 159.801C53.2473 160.204 53.7788 160.406 54.3209 160.406C54.8631 160.406 55.3946 160.204 55.8092 159.801L56.5108 159.122L57.9034 160.491L57.2018 161.17C56.8085 161.563 56.5853 162.072 56.5853 162.624C56.5853 163.176 56.8085 163.696 57.2018 164.078C57.6164 164.481 58.148 164.683 58.6901 164.683C59.2323 164.683 59.7638 164.481 60.1784 164.078C60.5717 163.685 60.795 163.176 60.795 162.624C60.795 162.072 60.5717 161.552 60.1784 161.17L59.4768 160.491L60.8694 159.122L61.571 159.801C61.9856 160.204 62.5171 160.406 63.0593 160.406C63.6014 160.406 64.133 160.204 64.5476 159.801C65.3661 158.995 65.3661 157.689 64.5476 156.893ZM57.9885 154.75C57.6058 154.368 57.6058 153.763 57.9885 153.381C58.1798 153.19 58.435 153.094 58.6901 153.094C58.9452 153.094 59.2004 153.19 59.3917 153.381C59.7744 153.763 59.7744 154.368 59.3917 154.75L58.6901 155.429L57.9885 154.75ZM55.0119 159.026C54.6292 159.408 54.002 159.408 53.6193 159.026C53.2366 158.644 53.2366 158.039 53.6193 157.657C53.8107 157.466 54.0658 157.371 54.3209 157.371C54.5761 157.371 54.8312 157.466 55.0226 157.657L55.7242 158.337L55.0226 159.016L55.0119 159.026ZM59.3917 161.934C59.5831 162.115 59.6788 162.359 59.6788 162.613C59.6788 162.868 59.5725 163.112 59.3917 163.293C59.009 163.675 58.3818 163.675 57.9991 163.293C57.8078 163.112 57.7121 162.868 57.7121 162.613C57.7121 162.359 57.8184 162.115 57.9991 161.934L58.7007 161.255L59.4024 161.934H59.3917ZM58.6901 159.706L57.2975 158.337L58.6901 156.968L60.0827 158.337L58.6901 159.706ZM63.7609 159.026C63.3782 159.408 62.751 159.408 62.3683 159.026L61.6667 158.347L62.3683 157.668C62.5596 157.488 62.8041 157.382 63.0699 157.382C63.3357 157.382 63.5802 157.477 63.7715 157.668C64.1542 158.05 64.1542 158.655 63.7715 159.037L63.7609 159.026Z" fill="#D22832"/>
<path d="M90.4655 156.893C90.0722 156.501 89.5407 156.288 88.9773 156.288C88.4138 156.288 87.8823 156.501 87.489 156.893L86.7874 157.573L85.3947 156.204L86.0964 155.524C86.9149 154.718 86.9149 153.413 86.0964 152.617C85.2778 151.81 83.9384 151.81 83.1198 152.617C82.3012 153.423 82.3012 154.728 83.1198 155.524L83.8214 156.204L82.4288 157.573L81.7272 156.893C80.9086 156.087 79.5692 156.087 78.7506 156.893C77.9321 157.7 77.9321 159.005 78.7506 159.801C79.1652 160.204 79.6968 160.406 80.2389 160.406C80.7811 160.406 81.3126 160.204 81.7272 159.801L82.4288 159.122L83.8214 160.491L83.1198 161.17C82.7265 161.563 82.5032 162.072 82.5032 162.624C82.5032 163.176 82.7265 163.696 83.1198 164.078C83.5344 164.481 84.0659 164.683 84.6081 164.683C85.1503 164.683 85.6818 164.481 86.0964 164.078C86.511 163.675 86.7129 163.176 86.7129 162.624C86.7129 162.072 86.4897 161.552 86.0964 161.17L85.3947 160.491L86.7874 159.122L87.489 159.801C87.9036 160.204 88.4351 160.406 88.9773 160.406C89.5194 160.406 90.0509 160.204 90.4655 159.801C91.2841 158.995 91.2841 157.689 90.4655 156.893ZM83.9065 154.75C83.5238 154.368 83.5238 153.763 83.9065 153.381C84.0978 153.19 84.353 153.094 84.6081 153.094C84.8632 153.094 85.1184 153.19 85.3097 153.381C85.6924 153.763 85.6924 154.368 85.3097 154.75L84.6081 155.429L83.9065 154.75ZM80.9299 159.026C80.5472 159.408 79.92 159.408 79.5373 159.026C79.1546 158.644 79.1546 158.039 79.5373 157.657C79.7287 157.466 79.9838 157.371 80.2389 157.371C80.4941 157.371 80.7492 157.466 80.9405 157.657L81.6422 158.337L80.9405 159.016L80.9299 159.026ZM85.3097 161.934C85.5011 162.115 85.5967 162.359 85.5967 162.613C85.5967 162.868 85.4904 163.112 85.3097 163.293C84.927 163.675 84.2998 163.675 83.9171 163.293C83.7257 163.112 83.6301 162.868 83.6301 162.613C83.6301 162.359 83.7364 162.115 83.9171 161.934L84.6187 161.255L85.3203 161.934H85.3097ZM84.6081 159.706L83.2155 158.337L84.6081 156.968L86.0007 158.337L84.6081 159.706ZM89.6789 159.026C89.2962 159.408 88.669 159.408 88.2863 159.026L87.5847 158.347L88.2863 157.668C88.4776 157.488 88.7221 157.382 88.9879 157.382C89.2537 157.382 89.4982 157.477 89.6895 157.668C90.0722 158.05 90.0722 158.655 89.6895 159.037L89.6789 159.026Z" fill="#D22832"/>
<path d="M116.384 156.893C115.99 156.501 115.459 156.288 114.895 156.288C114.332 156.288 113.8 156.501 113.407 156.893L112.705 157.573L111.313 156.204L112.014 155.524C112.833 154.718 112.833 153.413 112.014 152.617C111.196 151.81 109.856 151.81 109.038 152.617C108.219 153.423 108.219 154.728 109.038 155.524L109.739 156.204L108.347 157.573L107.645 156.893C106.827 156.087 105.487 156.087 104.669 156.893C103.85 157.7 103.85 159.005 104.669 159.801C105.083 160.204 105.615 160.406 106.157 160.406C106.699 160.406 107.231 160.204 107.645 159.801L108.347 159.122L109.739 160.491L109.038 161.17C108.644 161.563 108.421 162.072 108.421 162.624C108.421 163.176 108.644 163.696 109.038 164.078C109.452 164.481 109.984 164.683 110.526 164.683C111.068 164.683 111.6 164.481 112.014 164.078C112.429 163.675 112.631 163.176 112.631 162.624C112.631 162.072 112.408 161.552 112.014 161.17L111.313 160.491L112.705 159.122L113.407 159.801C113.822 160.204 114.353 160.406 114.895 160.406C115.437 160.406 115.969 160.204 116.384 159.801C117.202 158.995 117.202 157.689 116.384 156.893ZM109.824 154.75C109.442 154.368 109.442 153.763 109.824 153.381C110.016 153.19 110.271 153.094 110.526 153.094C110.781 153.094 111.036 153.19 111.228 153.381C111.61 153.763 111.61 154.368 111.228 154.75L110.526 155.429L109.824 154.75ZM106.848 159.026C106.465 159.408 105.838 159.408 105.455 159.026C105.073 158.644 105.073 158.039 105.455 157.657C105.647 157.466 105.902 157.371 106.157 157.371C106.412 157.371 106.667 157.466 106.859 157.657L107.56 158.337L106.859 159.016L106.848 159.026ZM111.228 161.934C111.419 162.115 111.515 162.359 111.515 162.613C111.515 162.868 111.408 163.112 111.228 163.293C110.845 163.675 110.218 163.675 109.835 163.293C109.644 163.112 109.548 162.868 109.548 162.613C109.548 162.359 109.654 162.115 109.835 161.934L110.537 161.255L111.238 161.934H111.228ZM110.526 159.706L109.133 158.337L110.526 156.968L111.919 158.337L110.526 159.706ZM115.597 159.026C115.214 159.408 114.587 159.408 114.204 159.026L113.503 158.347L114.204 157.668C114.396 157.488 114.64 157.382 114.906 157.382C115.172 157.382 115.416 157.477 115.607 157.668C115.99 158.05 115.99 158.655 115.607 159.037L115.597 159.026Z" fill="#D22832"/>
</g>
<defs>
<clipPath id="clip0_1990_32283">
<rect width="117" height="165" fill="white"/>
</clipPath>
</defs>
</svg>
