<svg width="274" height="274" viewBox="0 0 274 274" fill="none" xmlns="http://www.w3.org/2000/svg">
<rect width="274" height="274" rx="137" fill="#D22832"/>
<path d="M118.497 136.5C118.497 138.626 118.86 140.676 119.544 142.571L95.117 145.865C89.3106 146.868 84 142.395 84 136.511C84 131.178 88.352 127.014 93.4753 127.014C94.0152 127.014 94.5661 127.058 95.117 127.157L119.544 130.451C118.86 132.346 118.497 134.396 118.497 136.522V136.5Z" fill="#F8A328"/>
<path d="M145.997 93.4753C145.997 94.0152 145.953 94.5661 145.854 95.117L142.56 119.533C140.665 118.849 138.615 118.486 136.489 118.486C134.363 118.486 132.313 118.849 130.418 119.533L127.124 95.117C126.121 89.3106 130.594 84 136.478 84C141.811 84 145.986 88.341 145.986 93.4753H145.997Z" fill="#F8A328"/>
<path d="M145.997 179.525C145.997 184.659 141.822 189 136.489 189C130.594 189 126.121 183.689 127.135 177.883L130.429 153.456C132.324 154.14 134.374 154.503 136.5 154.503C138.626 154.503 140.676 154.14 142.571 153.456L145.865 177.883C145.964 178.434 146.008 178.985 146.008 179.525H145.997Z" fill="#F8A328"/>
<path d="M189 136.5C189 142.395 183.689 146.868 177.883 145.854L153.456 142.56C154.14 140.665 154.503 138.615 154.503 136.489C154.503 134.363 154.14 132.313 153.456 130.418L177.883 127.124C178.434 127.025 178.985 126.981 179.525 126.981C184.648 126.981 189 131.145 189 136.478V136.5Z" fill="#F8A328"/>
<path d="M128.799 152.784L113.847 172.374C110.454 177.189 103.535 177.784 99.3699 173.619C97.4969 171.746 96.5934 169.322 96.5934 166.909C96.5934 163.945 97.9596 161.004 100.615 159.142L120.205 144.201C121.99 147.959 125.03 150.999 128.799 152.784Z" fill="#F8A328"/>
<path d="M128.799 120.216C125.041 122.001 122.001 125.041 120.216 128.81L100.626 113.869C95.8111 110.465 95.2162 103.557 99.3809 99.3919C101.254 97.5189 103.678 96.6154 106.091 96.6154C109.055 96.6154 111.996 97.9816 113.858 100.637L128.799 120.227V120.216Z" fill="#F8A328"/>
<path d="M176.407 166.909C176.407 169.322 175.492 171.746 173.63 173.619C169.465 177.784 162.546 177.189 159.153 172.374L144.201 152.784C147.959 150.999 150.999 147.959 152.795 144.201L172.385 159.142C175.04 161.015 176.407 163.956 176.407 166.909Z" fill="#F8A328"/>
<path d="M172.385 113.858L152.795 128.799C151.01 125.041 147.97 122.001 144.212 120.216L159.153 100.626C161.026 97.9706 163.956 96.6044 166.92 96.6044C169.333 96.6044 171.757 97.5189 173.63 99.3809C177.795 103.546 177.2 110.465 172.385 113.858Z" fill="#F8A328"/>
<path d="M136.5 147.22C142.421 147.22 147.22 142.421 147.22 136.5C147.22 130.579 142.421 125.78 136.5 125.78C130.579 125.78 125.78 130.579 125.78 136.5C125.78 142.421 130.579 147.22 136.5 147.22Z" fill="#F8A328"/>
</svg>
