<svg width="274" height="274" viewBox="0 0 274 274" fill="none" xmlns="http://www.w3.org/2000/svg">
<rect width="274" height="274" rx="137" fill="#FFB932"/>
<path d="M137.083 170.135L141.684 174.683C144.307 177.277 147.781 178.698 151.495 178.698C155.209 178.698 158.683 177.277 161.294 174.683C166.697 169.342 166.697 160.648 161.294 155.295L156.694 150.747L165.895 141.651L170.495 146.199C175.898 151.54 184.703 151.54 190.106 146.199C192.717 143.605 194.167 140.17 194.167 136.499C194.167 132.827 192.729 129.393 190.106 126.811C184.703 121.469 175.898 121.469 170.495 126.811L165.895 131.359L156.694 122.263L161.294 117.715C166.697 112.373 166.709 103.68 161.294 98.3266C158.683 95.7446 155.197 94.3115 151.495 94.3115C147.793 94.3115 144.307 95.7328 141.684 98.3266L137.083 102.875L132.483 98.3266C129.86 95.7446 126.373 94.3115 122.672 94.3115C118.97 94.3115 115.484 95.7328 112.872 98.3266C110.165 101.003 108.811 104.509 108.811 108.027C108.811 111.544 110.165 115.05 112.872 117.715L117.473 122.263L108.272 131.359L103.672 126.811C98.2691 121.469 89.464 121.469 84.0611 126.811C81.4495 129.393 80 132.839 80 136.499C80 140.159 81.4376 143.605 84.0611 146.199C89.464 151.54 98.2691 151.54 103.672 146.199L108.272 141.651L117.473 150.747L112.872 155.295C110.165 157.972 108.811 161.477 108.811 164.995C108.811 168.513 110.165 172.018 112.872 174.683C115.484 177.277 118.97 178.698 122.672 178.698C126.373 178.698 129.86 177.277 132.483 174.683L137.083 170.135ZM127.883 122.263L132.483 117.715L137.083 113.167L141.684 117.715L146.284 122.263L141.684 126.811L137.083 131.359L132.483 126.811L127.883 122.263ZM127.883 150.747L132.483 146.199L137.083 141.651L141.684 146.199L146.284 150.747L141.684 155.295L137.083 159.843L132.483 155.295L127.883 150.747ZM156.083 169.543C154.861 170.751 153.22 171.426 151.483 171.426C149.746 171.426 148.117 170.763 146.883 169.543L142.283 164.995L146.883 160.447L151.483 155.899L156.083 160.447C158.623 162.958 158.623 167.044 156.083 169.543ZM175.694 131.963C178.222 129.452 182.355 129.452 184.894 131.963C186.128 133.171 186.799 134.793 186.799 136.511C186.799 138.228 186.128 139.851 184.894 141.059C182.355 143.57 178.222 143.57 175.694 141.059L171.094 136.511L175.694 131.963ZM160.683 136.511L151.483 145.607L146.883 141.059L142.283 136.511L146.883 131.963L151.483 127.415L160.683 136.511ZM156.083 103.479C157.353 104.734 157.988 106.38 157.988 108.027C157.988 109.673 157.353 111.319 156.083 112.575L151.483 117.123L146.883 112.575L142.283 108.027L146.883 103.479C148.117 102.259 149.746 101.595 151.483 101.595C153.22 101.595 154.849 102.259 156.083 103.479ZM118.072 112.575C115.544 110.064 115.532 105.989 118.072 103.479C119.305 102.259 120.935 101.595 122.672 101.595C124.409 101.595 126.038 102.259 127.272 103.479L131.872 108.027L127.272 112.575L122.672 117.123L118.072 112.575ZM98.4727 141.047C95.933 143.558 91.812 143.558 89.2723 141.047C88.0384 139.839 87.3675 138.216 87.3675 136.499C87.3675 134.782 88.0384 133.171 89.2723 131.951C91.812 129.44 95.945 129.44 98.4727 131.951L103.073 136.499L98.4727 141.047ZM122.684 127.403L127.284 131.951L131.884 136.499L127.284 141.047L122.684 145.595L113.483 136.499L122.684 127.403ZM118.084 169.531C115.544 167.02 115.544 162.946 118.084 160.435L122.684 155.887L127.284 160.435L131.884 164.983L127.284 169.531C126.05 170.739 124.421 171.414 122.684 171.414C120.947 171.414 119.317 170.751 118.084 169.531Z" fill="#214599"/>
</svg>
