<svg width="274" height="274" viewBox="0 0 274 274" fill="none" xmlns="http://www.w3.org/2000/svg">
<rect width="274" height="274" rx="137" fill="#149441"/>
<path d="M137.496 170.135L142.097 174.683C144.72 177.277 148.194 178.698 151.908 178.698C155.622 178.698 159.096 177.277 161.707 174.683C167.11 169.342 167.11 160.648 161.707 155.295L157.107 150.747L166.308 141.651L170.908 146.199C176.311 151.54 185.116 151.54 190.519 146.199C193.13 143.605 194.58 140.17 194.58 136.499C194.58 132.827 193.142 129.393 190.519 126.811C185.116 121.469 176.311 121.469 170.908 126.811L166.308 131.359L157.107 122.263L161.707 117.715C167.11 112.373 167.122 103.68 161.707 98.3266C159.096 95.7446 155.61 94.3115 151.908 94.3115C148.206 94.3115 144.72 95.7328 142.097 98.3266L137.496 102.875L132.896 98.3266C130.273 95.7446 126.787 94.3115 123.085 94.3115C119.383 94.3115 115.897 95.7328 113.285 98.3266C110.578 101.003 109.224 104.509 109.224 108.027C109.224 111.544 110.578 115.05 113.285 117.715L117.886 122.263L108.685 131.359L104.085 126.811C98.6821 121.469 89.8771 121.469 84.4742 126.811C81.8626 129.393 80.4131 132.839 80.4131 136.499C80.4131 140.159 81.8507 143.605 84.4742 146.199C89.8771 151.54 98.6821 151.54 104.085 146.199L108.685 141.651L117.886 150.747L113.285 155.295C110.578 157.972 109.224 161.477 109.224 164.995C109.224 168.513 110.578 172.018 113.285 174.683C115.897 177.277 119.383 178.698 123.085 178.698C126.787 178.698 130.273 177.277 132.896 174.683L137.496 170.135ZM128.296 122.263L132.896 117.715L137.496 113.167L142.097 117.715L146.697 122.263L142.097 126.811L137.496 131.359L132.896 126.811L128.296 122.263ZM128.296 150.747L132.896 146.199L137.496 141.651L142.097 146.199L146.697 150.747L142.097 155.295L137.496 159.843L132.896 155.295L128.296 150.747ZM156.496 169.543C155.274 170.751 153.633 171.426 151.896 171.426C150.159 171.426 148.53 170.763 147.296 169.543L142.696 164.995L147.296 160.447L151.896 155.899L156.496 160.447C159.036 162.958 159.036 167.044 156.496 169.543ZM176.107 131.963C178.635 129.452 182.768 129.452 185.307 131.963C186.541 133.171 187.212 134.793 187.212 136.511C187.212 138.228 186.541 139.851 185.307 141.059C182.768 143.57 178.635 143.57 176.107 141.059L171.507 136.511L176.107 131.963ZM161.096 136.511L151.896 145.607L147.296 141.059L142.696 136.511L147.296 131.963L151.896 127.415L161.096 136.511ZM156.496 103.479C157.766 104.734 158.401 106.38 158.401 108.027C158.401 109.673 157.766 111.319 156.496 112.575L151.896 117.123L147.296 112.575L142.696 108.027L147.296 103.479C148.53 102.259 150.159 101.595 151.896 101.595C153.633 101.595 155.262 102.259 156.496 103.479ZM118.485 112.575C115.957 110.064 115.945 105.989 118.485 103.479C119.719 102.259 121.348 101.595 123.085 101.595C124.822 101.595 126.451 102.259 127.685 103.479L132.285 108.027L127.685 112.575L123.085 117.123L118.485 112.575ZM98.8858 141.047C96.3461 143.558 92.2251 143.558 89.6854 141.047C88.4515 139.839 87.7806 138.216 87.7806 136.499C87.7806 134.782 88.4515 133.171 89.6854 131.951C92.2251 129.44 96.3581 129.44 98.8858 131.951L103.486 136.499L98.8858 141.047ZM123.097 127.403L127.697 131.951L132.297 136.499L127.697 141.047L123.097 145.595L113.896 136.499L123.097 127.403ZM118.497 169.531C115.957 167.02 115.957 162.946 118.497 160.435L123.097 155.887L127.697 160.435L132.297 164.983L127.697 169.531C126.463 170.739 124.834 171.414 123.097 171.414C121.36 171.414 119.731 170.751 118.497 169.531Z" fill="#FFB932"/>
</svg>
