<svg width="274" height="274" viewBox="0 0 274 274" fill="none" xmlns="http://www.w3.org/2000/svg">
<rect width="274" height="274" rx="137" fill="#FFB932"/>
<g clip-path="url(#clip0_1533_32075)">
<path d="M142.986 94.3115C145.577 113.908 161.005 129.346 180.612 131.927C178.09 112.27 162.653 96.8232 142.986 94.3115Z" fill="#149441"/>
<path d="M137.457 110.831C132.076 122.605 122.605 132.076 110.831 137.457C122.605 142.837 132.076 152.308 137.457 164.082C142.837 152.308 152.308 142.837 164.082 137.457C152.308 132.076 142.837 122.605 137.457 110.831Z" fill="#149441"/>
<path d="M168.232 168.232C174.874 161.591 179.361 152.825 180.612 142.986C161.005 145.567 145.577 161.005 142.986 180.602C152.825 179.351 161.6 174.854 168.232 168.232Z" fill="#149441"/>
<path d="M131.927 180.612C129.346 161.005 113.908 145.577 94.3115 142.996C96.8232 162.653 112.261 178.1 131.927 180.612Z" fill="#149441"/>
<path d="M131.927 94.3115C112.261 96.8232 96.8232 112.27 94.3115 131.927C113.908 129.346 129.346 113.908 131.927 94.3115Z" fill="#149441"/>
</g>
<defs>
<clipPath id="clip0_1533_32075">
<rect width="86.3001" height="86.3001" fill="white" transform="translate(94.3115 94.3115)"/>
</clipPath>
</defs>
</svg>
