<?xml version="1.0" encoding="UTF-8"?>
<svg id="Layer_1" data-name="Layer 1" xmlns="http://www.w3.org/2000/svg" viewBox="0 0 46.14 46.14">
  <defs>
    <style>
      .cls-1 {
        fill: #fff;
      }

      .cls-2 {
        fill: #d11349;
      }
    </style>
  </defs>
  <circle class="cls-2" cx="23.07" cy="23.07" r="23.07"/>
  <path class="cls-1" d="M21.84,9.26l-5-.45c-.39-.02-.73,.27-.75,.67,0,.11,.01,.23,.06,.33l.69,1.38c-6.56,3.44-9.08,11.55-5.64,18.11,1.67,3.17,4.53,5.55,7.96,6.59,.59,.17,1.2-.18,1.37-.77,.03-.09,.04-.19,.04-.28-.03-.46-.34-.86-.78-1-5.93-1.8-9.28-8.06-7.48-13.99,.87-2.86,2.84-5.26,5.48-6.66l.73,1.41c.18,.35,.61,.49,.96,.31,.11-.06,.21-.14,.27-.25l2.58-4.26c.22-.35,.12-.81-.23-1.04-.08-.05-.17-.09-.26-.1Z"/>
  <path class="cls-1" d="M36.48,23.09c0-5.89-3.85-11.1-9.48-12.83-.59-.17-1.2,.18-1.37,.77-.03,.09-.04,.19-.04,.28,.03,.46,.34,.86,.78,1,5.93,1.8,9.28,8.06,7.49,13.99-.88,2.89-2.88,5.31-5.56,6.7l-.72-1.42c-.18-.35-.61-.49-.96-.31-.11,.06-.21,.14-.27,.25l-2.59,4.28c-.2,.34-.09,.78,.26,.99,.09,.05,.19,.08,.29,.09l5,.45c.39,.03,.72-.25,.76-.64,.01-.12-.01-.25-.07-.36l-.69-1.38c4.42-2.3,7.18-6.88,7.17-11.86Z"/>
</svg>